<?xml version="1.0" encoding="utf-8"?>
<!-- Generator: Adobe Illustrator 23.0.1, SVG Export Plug-In . SVG Version: 6.00 Build 0)  -->
<!DOCTYPE svg PUBLIC "-//W3C//DTD SVG 1.1//EN" "http://www.w3.org/Graphics/SVG/1.1/DTD/svg11.dtd" [
	<!ENTITY st0 "opacity:0.2;">
	<!ENTITY st1 "fill:#F5F2F2;">
]>
<svg version="1.1" id="Layer_1" xmlns="http://www.w3.org/2000/svg" xmlns:xlink="http://www.w3.org/1999/xlink" x="0px" y="0px"
	 viewBox="0 0 113.67 113.67" style="enable-background:new 0 0 113.67 113.67;" xml:space="preserve">
<g id="Layer_4">
</g>
<g>
	<g style="&st0;">
		<polygon style="&st1;" points="113.67,0 113.26,0 0,113.27 0,113.67 0.4,113.67 113.67,0.4 		"/>
		<polygon style="&st1;" points="113.67,6.08 113.67,5.28 5.48,113.47 5.28,113.67 6.08,113.67 		"/>
		<polygon style="&st1;" points="113.67,11.77 113.67,10.96 11.17,113.47 10.96,113.67 11.77,113.67 		"/>
		<polygon style="&st1;" points="113.67,17.45 113.67,16.65 16.85,113.47 16.65,113.67 17.45,113.67 		"/>
		<polygon style="&st1;" points="113.67,23.13 113.67,22.33 22.53,113.47 22.33,113.67 23.13,113.67 		"/>
		<polygon style="&st1;" points="113.67,28.82 113.67,28.01 28.22,113.47 28.02,113.67 28.82,113.67 		"/>
		<polygon style="&st1;" points="113.67,34.5 113.67,33.7 33.9,113.47 33.7,113.67 34.5,113.67 		"/>
		<polygon style="&st1;" points="113.67,40.18 113.67,39.38 39.58,113.47 39.38,113.67 40.18,113.67 		"/>
		<polygon style="&st1;" points="113.67,45.87 113.67,45.06 45.27,113.47 45.06,113.67 45.87,113.67 		"/>
		<polygon style="&st1;" points="113.67,51.55 113.67,50.75 50.75,113.67 51.55,113.67 		"/>
		<polygon style="&st1;" points="113.67,57.23 113.67,56.43 56.63,113.47 56.43,113.67 57.23,113.67 		"/>
		<polygon style="&st1;" points="113.67,62.92 113.67,62.11 62.32,113.47 62.11,113.67 62.92,113.67 		"/>
		<polygon style="&st1;" points="113.67,68.6 113.67,67.8 68,113.47 67.8,113.67 68.6,113.67 		"/>
		<polygon style="&st1;" points="113.67,74.28 113.67,73.48 73.68,113.47 73.48,113.67 74.28,113.67 		"/>
		<polygon style="&st1;" points="113.67,79.97 113.67,79.17 79.37,113.47 79.16,113.67 79.97,113.67 		"/>
		<polygon style="&st1;" points="113.67,85.65 113.67,84.85 85.05,113.47 84.85,113.67 85.65,113.67 		"/>
		<polygon style="&st1;" points="113.67,91.33 113.67,90.53 90.73,113.47 90.53,113.67 91.33,113.67 		"/>
		<polygon style="&st1;" points="113.67,97.02 113.67,96.22 96.42,113.47 96.21,113.67 97.02,113.67 		"/>
		<polygon style="&st1;" points="113.67,102.7 113.67,101.9 102.1,113.47 101.9,113.67 102.7,113.67 		"/>
		<polygon style="&st1;" points="113.67,108.38 113.67,107.58 107.78,113.47 107.58,113.67 108.38,113.67 		"/>
		<polygon style="&st1;" points="113.67,113.27 113.47,113.47 113.26,113.67 113.67,113.67 		"/>
		<polygon style="&st1;" points="45.87,0 45.87,0 45.06,0 0,45.06 0,45.87 		"/>
		<polygon style="&st1;" points="51.35,0.2 51.55,0 51.55,0 50.75,0 0,50.75 0,51.55 		"/>
		<polygon style="&st1;" points="57.03,0.2 57.24,0 57.24,0 56.43,0 0,56.43 0,57.23 		"/>
		<polygon style="&st1;" points="62.72,0.2 62.92,0 62.92,0 62.11,0 0,62.11 0,62.92 		"/>
		<polygon style="&st1;" points="68.4,0.2 68.6,0 68.6,0 67.8,0 0,67.8 0,68.6 		"/>
		<polygon style="&st1;" points="74.08,0.2 74.29,0 74.28,0 73.48,0 0,73.48 0,74.28 		"/>
		<polygon style="&st1;" points="79.77,0.2 79.97,0 79.97,0 79.16,0 0,79.17 0,79.97 		"/>
		<polygon style="&st1;" points="85.45,0.2 85.65,0 85.65,0 84.85,0 0,84.85 0,85.65 		"/>
		<polygon style="&st1;" points="91.13,0.2 91.34,0 91.33,0 90.53,0 0,90.53 0,91.33 		"/>
		<polygon style="&st1;" points="96.82,0.2 97.02,0 97.02,0 96.21,0 0,96.22 0,97.02 		"/>
		<polygon style="&st1;" points="102.5,0.2 102.7,0 102.7,0 101.9,0 0,101.9 0,102.7 		"/>
		<polygon style="&st1;" points="108.18,0.2 108.38,0 108.38,0 107.58,0 0,107.58 0,108.38 		"/>
		<polygon style="&st1;" points="0,0.4 0.2,0.2 0.4,0 0.4,0 0,0 		"/>
		<polygon style="&st1;" points="5.88,0.2 6.09,0 6.09,0 5.28,0 0,5.28 0,6.08 		"/>
		<polygon style="&st1;" points="11.57,0.2 11.77,0 11.77,0 10.96,0 0,10.96 0,11.77 		"/>
		<polygon style="&st1;" points="17.25,0.2 17.45,0 17.45,0 16.65,0 0,16.65 0,17.45 		"/>
		<polygon style="&st1;" points="22.93,0.2 23.14,0 23.14,0 22.33,0 0,22.33 0,23.13 		"/>
		<polygon style="&st1;" points="28.82,0 28.82,0 28.01,0 0,28.01 0,28.82 		"/>
		<polygon style="&st1;" points="34.3,0.2 34.5,0 34.5,0 33.7,0 0,33.7 0,34.5 		"/>
		<polygon style="&st1;" points="39.98,0.2 40.19,0 40.19,0 39.38,0 0,39.38 0,40.18 		"/>
	</g>
</g>
</svg>
