<?xml version="1.0" encoding="UTF-8"?>
<svg enable-background="new 0 0 1471 212.1" version="1.1" viewBox="0 0 1471 212.1" xml:space="preserve" xmlns="http://www.w3.org/2000/svg">
<style type="text/css">
	.st0{fill:#0D597F;}
	.st1{fill:#E95420;}
	.st2{fill:#FFFFFF;}
	.st3{fill:none;stroke:#333333;stroke-width:2;stroke-miterlimit:10;}
	.st4{fill:#333333;}
	.st5{font-family:'Roboto';}
	.st6{font-size:36.7244px;}
	.st7{fill:#394D54;}
	.st8{fill:none;}
	.st9{fill:#20C2EF;}
	.st10{fill:none;stroke:#000000;stroke-width:0;stroke-linecap:round;stroke-linejoin:round;}
	.st11{fill:#00ACD3;}
	.st12{fill:#17B5EB;}
	.st13{opacity:9.000000e-02;}
	.st14{fill:#D4EDF1;}
	.st15{fill:#009539;}
	.st16{fill:#FEFEFE;}
	.st17{fill:#91D03D;}
	.st18{fill:#49691F;}
</style>
<g transform="matrix(1.25 0 0 -1.25 -267.56 592.23)">
	<g transform="translate(268.14 393.27)">
		<path class="st0" d="m581.9 3.8v14.7l-10.6-10.6c1.1-0.8 2.2-1.4 3.2-2 1-0.5 2-0.9 2.8-1.3 0.9-0.3 1.7-0.5 2.4-0.7 0.9 0 1.6-0.1 2.2-0.1m54.1 1.2s0.1-0.1 0.3-0.2 0.5-0.3 0.8-0.4c0.4-0.2 0.8-0.3 1.4-0.4s1.2-0.2 2-0.2c0.6 0 1.3 0.1 2.1 0.2s1.6 0.3 2.5 0.7c0.9 0.3 1.8 0.7 2.9 1.3 1 0.5 2.1 1.2 3.3 2l-8 7.9-26.6 26.7-11.7-11.7-15.8 16.1-39.5-39c1.2-0.8 2.2-1.5 3.3-2 1-0.5 2-0.9 2.9-1.3 0.9-0.3 1.7-0.5 2.5-0.7 0.8-0.1 1.5-0.2 2.1-0.2 0.8 0 1.4 0.1 2 0.2s1 0.3 1.4 0.4l0.8 0.4c0.2 0.1 0.3 0.2 0.3 0.2l17.8 17.8 6.4 6.1 17.7-17.7 6.2-6.3s0.1-0.1 0.3-0.2 0.5-0.3 0.8-0.4c0.4-0.2 0.8-0.3 1.4-0.4s1.2-0.2 2-0.2c0.6 0 1.3 0.1 2.1 0.2s1.6 0.3 2.5 0.7c0.9 0.3 1.8 0.7 2.9 1.3 1 0.5 2.1 1.2 3.3 2l-14.2 13.9 2.6 2.6 12-12.3 7.2-7.1m-0.2 74l34.8-60.3-34.8-60.4h-69.7l-34.8 60.3 34.8 60.4h69.7z"/>
	</g>
	<g transform="translate(302.5 412.25)">
		<path class="st0" d="m579.7 2.6l-9.3 9.3 0.7 0.7 9.3-9.2s-0.7-0.8-0.7-0.8z"/>
	</g>
</g>
	<path class="st1" d="m193.1 78.3c0 43.3-35.1 78.3-78.3 78.3s-78.3-35.1-78.3-78.3c-0.1-43.2 35-78.3 78.2-78.3 43.3 0 78.4 35.1 78.4 78.3z"/>
	<path class="st2" d="m74.1 78.3c0 5.6-4.5 10.1-10.1 10.1s-10.1-4.5-10.1-10.1 4.5-10.1 10.1-10.1c5.6 0.1 10.1 4.6 10.1 10.1zm57.3 49c2.8 4.8 8.9 6.5 13.8 3.7 4.8-2.8 6.5-8.9 3.7-13.8-2.8-4.8-8.9-6.5-13.8-3.7-4.8 2.8-6.5 9-3.7 13.8zm17.4-87.9c2.8-4.8 1.1-11-3.7-13.8s-11-1.1-13.8 3.7-1.1 11 3.7 13.8c4.9 2.8 11.1 1.2 13.8-3.7zm-34.1 10.2c15 0 27.3 11.5 28.6 26.2l14.6-0.2c-0.7-10.9-5.4-20.7-12.7-27.9-3.9 1.5-8.3 1.3-12.2-0.9s-6.3-6-6.9-10.1c-3.6-1-7.4-1.5-11.4-1.5-6.9 0-13.4 1.6-19.2 4.5l7.1 12.7c3.7-1.8 7.8-2.8 12.1-2.8zm-28.7 28.7c0-9.7 4.8-18.3 12.2-23.5l-7.5-12.5c-8.7 5.8-15.1 14.6-17.9 25 3.2 2.6 5.3 6.6 5.3 11 0 4.5-2.1 8.4-5.3 11 2.7 10.4 9.2 19.2 17.9 25l7.5-12.5c-7.4-5.1-12.2-13.7-12.2-23.5zm28.7 28.8c-4.3 0-8.4-1-12.1-2.7l-7.1 12.7c5.8 2.9 12.3 4.5 19.2 4.5 3.9 0 7.7-0.5 11.4-1.5 0.6-4.1 3.1-7.9 6.9-10.1 3.9-2.2 8.3-2.4 12.2-0.9 7.3-7.2 12-17 12.7-27.9l-14.6-0.2c-1.2 14.6-13.5 26.1-28.6 26.1z"/>
	<line class="st3" x1="234.7" x2="294.4" y1="88.1" y2="88.1"/>
	<path class="st4" d="m300.4 88.1c-2.8 1.1-6.4 2.9-8.5 4.8l1.7-4.8-1.7-4.8c2.2 1.9 5.7 3.7 8.5 4.8z"/>
	<line class="st3" x1="236.3" x2="300.4" y1="72.3" y2="72.3"/>
	<path class="st4" d="m230.2 72.3c2.8 1.1 6.4 2.9 8.5 4.8l-1.7-4.8 1.7-4.8c-2.1 1.9-5.6 3.7-8.5 4.8z"/>
	<line class="st3" x1="624.8" x2="684.6" y1="88.1" y2="88.1"/>
	<path class="st4" d="m690.6 88.1c-2.8 1.1-6.4 2.9-8.5 4.8l1.7-4.8-1.7-4.8c2.1 1.9 5.7 3.7 8.5 4.8z"/>
	<line class="st3" x1="626.4" x2="690.6" y1="72.3" y2="72.3"/>
	<path class="st4" d="m620.4 72.3c2.8 1.1 6.4 2.9 8.5 4.8l-1.7-4.8 1.7-4.8c-2.2 1.9-5.7 3.7-8.5 4.8z"/>
<text class="st4 st5 st6" transform="translate(.044476 202.19)">Ubuntu Server</text>
<text class="st4 st5 st6" transform="translate(401.66 202.19)">Docker</text>
<text class="st4 st5 st6" transform="translate(719.5 202.19)">Alpine Linux</text>
	<path class="st7" d="m478.2 60.2h22v22.4h11.1c5.1 0 10.4-0.9 15.3-2.6 2.4-0.8 5.1-1.9 7.4-3.4-3.1-4-4.7-9.2-5.1-14.2-0.6-6.9 0.7-15.8 5.4-21.1l2.3-2.7 2.8 2.2c6.9 5.6 12.7 13.3 13.8 22.2 8.3-2.5 18.1-1.9 25.5 2.4l3 1.7-1.6 3.1c-6.2 12.1-19.2 15.9-31.9 15.2-19 47.4-60.4 69.8-110.6 69.8-25.9 0-49.7-9.7-63.3-32.7-0.8-1.4-1.5-2.9-2.2-4.4-4.6-10.1-6.1-21.2-5.1-32.3l0.3-3.3h18.7v-22.3h22v-22h43.9v-22h26.4l-0.1 44"/>
		<path class="st8" d="m549.3 68.5l17.7-50.3-69.1 44.2h-22.1v-44.2h-66.3v44.2h-21.1v22.1h-17.7c-0.1 0.6-0.1 1.3-0.2 1.9-1.1 12 1 23.1 5.8 32.6l1.6 2.9c1 1.7 2.1 3.4 3.3 5s1.6 2.5 2.4 3.5c12.8 14.3 31.8 21.2 53.7 21.2 48.6 0 89.9-21.5 108.2-70 13 1.3 25.4-2 31.1-13.1-9-5.1-20.6-3.4-27.3 0zm-140.6 14.4h-19v-19h19v19zm21.9 0h-19v-19h19v19zm0-22h-19v-19h19v19zm22 22h-19v-19h19v19zm0-22h-19v-19h19v19zm21.9 22h-19v-19h19v19zm0-22h-19v-19h19v19zm0-22h-19v-19h19v19zm22 44h-19v-19h19v19z"/>
		<path class="st9" d="m455.5 38.9h19v-19h-19v19zm16-17.4h1.4v15.9h-1.4v-15.9zm-2.9 0h1.4v15.9h-1.4v-15.9zm-2.9 0h1.4v15.9h-1.4v-15.9zm-2.9 0h1.4v15.9h-1.4v-15.9zm-2.8 0h1.4v15.9h-1.4v-15.9zm-2.9 0h1.4v15.9h-1.4v-15.9z"/>
		<line class="st10" x1="457.8" x2="457.8" y1="21.5" y2="21.5"/>
		<line class="st10" x1="472.2" x2="472.2" y1="21.5" y2="21.5"/>
		<line class="st10" x1="463.6" x2="463.6" y1="21.5" y2="21.5"/>
		<line class="st10" x1="466.5" x2="466.5" y1="37.4" y2="37.4"/>
		<line class="st10" x1="460.7" x2="460.7" y1="37.4" y2="37.4"/>
		<line class="st10" x1="460.7" x2="460.7" y1="21.5" y2="21.5"/>
		<line class="st10" x1="463.6" x2="463.6" y1="37.4" y2="37.4"/>
		<line class="st10" x1="469.3" x2="469.3" y1="21.5" y2="21.5"/>
		<line class="st10" x1="472.2" x2="472.2" y1="37.4" y2="37.4"/>
		<line class="st10" x1="469.3" x2="469.3" y1="37.4" y2="37.4"/>
		<line class="st10" x1="457.8" x2="457.8" y1="37.4" y2="37.4"/>
		<line class="st10" x1="466.5" x2="466.5" y1="21.5" y2="21.5"/>
		<polygon class="st7" points="467.2 37.4 467.2 21.5 466.5 21.5 465.7 21.5 465.7 37.4 466.5 37.4"/>
		<polygon class="st7" points="470.1 37.4 470.1 21.5 469.3 21.5 468.6 21.5 468.6 37.4 469.3 37.4"/>
		<polygon class="st7" points="464.3 37.4 464.3 21.5 463.6 21.5 462.8 21.5 462.8 37.4 463.6 37.4"/>
		<polygon class="st7" points="473 37.4 473 21.5 472.2 21.5 471.5 21.5 471.5 37.4 472.2 37.4"/>
		<polygon class="st7" points="458.6 37.4 458.6 21.5 457.8 21.5 457.1 21.5 457.1 37.4 457.8 37.4"/>
		<polygon class="st7" points="461.4 37.4 461.4 21.5 460.7 21.5 460 21.5 460 37.4 460.7 37.4"/>
		<path class="st11" d="m389.6 82.9h19v-19h-19v19zm16-17.5h1.4v15.9h-1.4v-15.9zm-2.9 0h1.4v15.9h-1.4v-15.9zm-2.9 0h1.4v15.9h-1.4v-15.9zm-2.8 0h1.4v15.9h-1.4v-15.9zm-2.9 0h1.4v15.9h-1.4v-15.9zm-2.9 0h1.4v15.9h-1.3v-15.9z"/>
		<line class="st10" x1="392" x2="392" y1="65.4" y2="65.4"/>
		<line class="st10" x1="400.6" x2="400.6" y1="65.4" y2="65.4"/>
		<line class="st10" x1="400.6" x2="400.6" y1="81.3" y2="81.3"/>
		<line class="st10" x1="397.7" x2="397.7" y1="81.3" y2="81.3"/>
		<line class="st10" x1="397.7" x2="397.7" y1="65.4" y2="65.4"/>
		<line class="st10" x1="394.8" x2="394.8" y1="81.3" y2="81.3"/>
		<line class="st10" x1="406.3" x2="406.3" y1="65.4" y2="65.4"/>
		<line class="st10" x1="406.3" x2="406.3" y1="81.3" y2="81.3"/>
		<line class="st10" x1="403.5" x2="403.5" y1="81.3" y2="81.3"/>
		<line class="st10" x1="394.8" x2="394.8" y1="65.4" y2="65.4"/>
		<line class="st10" x1="392" x2="392" y1="81.3" y2="81.3"/>
		<line class="st10" x1="403.5" x2="403.5" y1="65.4" y2="65.4"/>
		<polygon class="st7" points="407.1 81.3 407.1 65.4 406.3 65.4 405.6 65.4 405.6 81.3 406.3 81.3"/>
		<polygon class="st7" points="401.3 81.3 401.3 65.4 400.6 65.4 399.8 65.4 399.8 81.3 400.6 81.3"/>
		<polygon class="st7" points="398.5 81.3 398.5 65.4 397.7 65.4 397 65.4 397 81.3 397.7 81.3"/>
		<polygon class="st7" points="404.2 81.3 404.2 65.4 403.5 65.4 402.7 65.4 402.7 81.3 403.5 81.3"/>
		<polygon class="st7" points="392.7 81.3 392.7 65.4 392 65.4 391.2 65.4 391.2 81.3 392 81.3"/>
		<polygon class="st7" points="395.6 81.3 395.6 65.4 394.8 65.4 394.1 65.4 394.1 81.3 394.8 81.3"/>
		<path class="st11" d="m411.6 60.9h19v-19h-19v19zm15.9-17.4h1.4v15.9h-1.4v-15.9zm-2.8 0h1.4v15.9h-1.4v-15.9zm-2.9 0h1.4v15.9h-1.4v-15.9zm-2.9 0h1.4v15.9h-1.4v-15.9zm-2.9 0h1.4v15.9h-1.4v-15.9zm-2.8 0h1.4v15.9h-1.4v-15.9z"/>
		<path class="st9" d="m411.6 82.9h19v-19h-19v19zm15.9-17.5h1.4v15.9h-1.4v-15.9zm-2.8 0h1.4v15.9h-1.4v-15.9zm-2.9 0h1.4v15.9h-1.4v-15.9zm-2.9 0h1.4v15.9h-1.4v-15.9zm-2.9 0h1.4v15.9h-1.4v-15.9zm-2.8 0h1.4v15.9h-1.4v-15.9z"/>
		<line class="st10" x1="416.8" x2="416.8" y1="59.3" y2="59.3"/>
		<line class="st10" x1="425.4" x2="425.4" y1="43.5" y2="43.5"/>
		<line class="st10" x1="413.9" x2="413.9" y1="59.3" y2="59.3"/>
		<line class="st10" x1="413.9" x2="413.9" y1="43.5" y2="43.5"/>
		<line class="st10" x1="428.3" x2="428.3" y1="59.3" y2="59.3"/>
		<line class="st10" x1="422.5" x2="422.5" y1="43.5" y2="43.5"/>
		<line class="st10" x1="422.5" x2="422.5" y1="59.3" y2="59.3"/>
		<line class="st10" x1="428.3" x2="428.3" y1="43.5" y2="43.5"/>
		<line class="st10" x1="419.7" x2="419.7" y1="43.5" y2="43.5"/>
		<line class="st10" x1="419.7" x2="419.7" y1="59.3" y2="59.3"/>
		<line class="st10" x1="416.8" x2="416.8" y1="43.5" y2="43.5"/>
		<line class="st10" x1="425.4" x2="425.4" y1="59.3" y2="59.3"/>
		<polygon class="st7" points="414.7 59.3 414.7 43.5 413.9 43.5 413.2 43.5 413.2 59.3 413.9 59.3"/>
		<polygon class="st7" points="417.5 59.3 417.5 43.5 416.8 43.5 416 43.5 416 59.3 416.8 59.3"/>
		<polygon class="st7" points="423.3 59.3 423.3 43.5 422.5 43.5 421.8 43.5 421.8 59.3 422.5 59.3"/>
		<polygon class="st7" points="426.2 59.3 426.2 43.5 425.4 43.5 424.7 43.5 424.7 59.3 425.4 59.3"/>
		<polygon class="st7" points="420.4 59.3 420.4 43.5 419.7 43.5 418.9 43.5 418.9 59.3 419.7 59.3"/>
		<polygon class="st7" points="429 59.3 429 43.5 428.3 43.5 427.5 43.5 427.5 59.3 428.3 59.3"/>
		<line class="st10" x1="425.4" x2="425.4" y1="65.4" y2="65.4"/>
		<line class="st10" x1="413.9" x2="413.9" y1="65.4" y2="65.4"/>
		<line class="st10" x1="425.4" x2="425.4" y1="81.3" y2="81.3"/>
		<line class="st10" x1="419.7" x2="419.7" y1="81.3" y2="81.3"/>
		<line class="st10" x1="416.8" x2="416.8" y1="65.4" y2="65.4"/>
		<line class="st10" x1="428.3" x2="428.3" y1="81.3" y2="81.3"/>
		<line class="st10" x1="416.8" x2="416.8" y1="81.3" y2="81.3"/>
		<line class="st10" x1="428.3" x2="428.3" y1="65.4" y2="65.4"/>
		<line class="st10" x1="419.7" x2="419.7" y1="65.4" y2="65.4"/>
		<line class="st10" x1="413.9" x2="413.9" y1="81.3" y2="81.3"/>
		<line class="st10" x1="422.5" x2="422.5" y1="65.4" y2="65.4"/>
		<line class="st10" x1="422.5" x2="422.5" y1="81.3" y2="81.3"/>
		<polygon class="st7" points="426.2 81.3 426.2 65.4 425.4 65.4 424.7 65.4 424.7 81.3 425.4 81.3"/>
		<polygon class="st7" points="429 81.3 429 65.4 428.3 65.4 427.5 65.4 427.5 81.3 428.3 81.3"/>
		<polygon class="st7" points="420.4 81.3 420.4 65.4 419.7 65.4 418.9 65.4 418.9 81.3 419.7 81.3"/>
		<polygon class="st7" points="414.7 81.3 414.7 65.4 413.9 65.4 413.2 65.4 413.2 81.3 413.9 81.3"/>
		<polygon class="st7" points="417.5 81.3 417.5 65.4 416.8 65.4 416 65.4 416 81.3 416.8 81.3"/>
		<polygon class="st7" points="423.3 81.3 423.3 65.4 422.5 65.4 421.8 65.4 421.8 81.3 422.5 81.3"/>
		<path class="st11" d="m433.5 82.9h19v-19h-19v19zm16-17.5h1.4v15.9h-1.4v-15.9zm-2.9 0h1.4v15.9h-1.4v-15.9zm-2.8 0h1.4v15.9h-1.4v-15.9zm-2.9 0h1.4v15.9h-1.4v-15.9zm-2.9 0h1.4v15.9h-1.4v-15.9zm-2.9 0h1.4v15.9h-1.4v-15.9z"/>
		<path class="st9" d="m433.5 60.9h19v-19h-19v19zm16-17.4h1.4v15.9h-1.4v-15.9zm-2.9 0h1.4v15.9h-1.4v-15.9zm-2.8 0h1.4v15.9h-1.4v-15.9zm-2.9 0h1.4v15.9h-1.4v-15.9zm-2.9 0h1.4v15.9h-1.4v-15.9zm-2.9 0h1.4v15.9h-1.4v-15.9z"/>
		<line class="st10" x1="441.6" x2="441.6" y1="65.4" y2="65.4"/>
		<line class="st10" x1="444.5" x2="444.5" y1="65.4" y2="65.4"/>
		<line class="st10" x1="444.5" x2="444.5" y1="81.3" y2="81.3"/>
		<line class="st10" x1="447.4" x2="447.4" y1="65.4" y2="65.4"/>
		<line class="st10" x1="450.2" x2="450.2" y1="81.3" y2="81.3"/>
		<line class="st10" x1="447.4" x2="447.4" y1="81.3" y2="81.3"/>
		<line class="st10" x1="435.9" x2="435.9" y1="65.4" y2="65.4"/>
		<line class="st10" x1="441.6" x2="441.6" y1="81.3" y2="81.3"/>
		<line class="st10" x1="435.9" x2="435.9" y1="81.3" y2="81.3"/>
		<line class="st10" x1="438.7" x2="438.7" y1="65.4" y2="65.4"/>
		<line class="st10" x1="438.7" x2="438.7" y1="81.3" y2="81.3"/>
		<line class="st10" x1="450.2" x2="450.2" y1="65.4" y2="65.4"/>
		<polygon class="st7" points="445.3 81.3 445.3 65.4 444.5 65.4 443.8 65.4 443.8 81.3 444.5 81.3"/>
		<polygon class="st7" points="442.4 81.3 442.4 65.4 441.6 65.4 440.9 65.4 440.9 81.3 441.6 81.3"/>
		<polygon class="st7" points="448.1 81.3 448.1 65.4 447.4 65.4 446.6 65.4 446.6 81.3 447.4 81.3"/>
		<polygon class="st7" points="439.5 81.3 439.5 65.4 438.7 65.4 438 65.4 438 81.3 438.7 81.3"/>
		<polygon class="st7" points="436.6 81.3 436.6 65.4 435.9 65.4 435.1 65.4 435.1 81.3 435.9 81.3"/>
		<polygon class="st7" points="451 81.3 451 65.4 450.2 65.4 449.5 65.4 449.5 81.3 450.2 81.3"/>
		<line class="st10" x1="444.5" x2="444.5" y1="59.3" y2="59.3"/>
		<line class="st10" x1="438.7" x2="438.7" y1="43.5" y2="43.5"/>
		<line class="st10" x1="447.4" x2="447.4" y1="43.5" y2="43.5"/>
		<line class="st10" x1="441.6" x2="441.6" y1="59.3" y2="59.3"/>
		<line class="st10" x1="447.4" x2="447.4" y1="59.3" y2="59.3"/>
		<line class="st10" x1="441.6" x2="441.6" y1="43.5" y2="43.5"/>
		<line class="st10" x1="438.7" x2="438.7" y1="59.3" y2="59.3"/>
		<line class="st10" x1="450.2" x2="450.2" y1="59.3" y2="59.3"/>
		<line class="st10" x1="435.9" x2="435.9" y1="59.3" y2="59.3"/>
		<line class="st10" x1="444.5" x2="444.5" y1="43.5" y2="43.5"/>
		<line class="st10" x1="450.2" x2="450.2" y1="43.5" y2="43.5"/>
		<line class="st10" x1="435.9" x2="435.9" y1="43.5" y2="43.5"/>
		<polygon class="st7" points="445.3 59.3 445.3 43.5 444.5 43.5 443.8 43.5 443.8 59.3 444.5 59.3"/>
		<polygon class="st7" points="451 59.3 451 43.5 450.2 43.5 449.5 43.5 449.5 59.3 450.2 59.3"/>
		<polygon class="st7" points="442.4 59.3 442.4 43.5 441.6 43.5 440.9 43.5 440.9 59.3 441.6 59.3"/>
		<polygon class="st7" points="439.5 59.3 439.5 43.5 438.7 43.5 438 43.5 438 59.3 438.7 59.3"/>
		<polygon class="st7" points="436.6 59.3 436.6 43.5 435.9 43.5 435.1 43.5 435.1 59.3 435.9 59.3"/>
		<polygon class="st7" points="448.1 59.3 448.1 43.5 447.4 43.5 446.6 43.5 446.6 59.3 447.4 59.3"/>
		<path class="st11" d="m455.5 60.9h19v-19h-19v19zm16-17.4h1.4v15.9h-1.4v-15.9zm-2.9 0h1.4v15.9h-1.4v-15.9zm-2.9 0h1.4v15.9h-1.4v-15.9zm-2.9 0h1.4v15.9h-1.4v-15.9zm-2.8 0h1.4v15.9h-1.4v-15.9zm-2.9 0h1.4v15.9h-1.4v-15.9z"/>
		<path class="st9" d="m455.5 82.9h19v-19h-19v19zm16-17.5h1.4v15.9h-1.4v-15.9zm-2.9 0h1.4v15.9h-1.4v-15.9zm-2.9 0h1.4v15.9h-1.4v-15.9zm-2.9 0h1.4v15.9h-1.4v-15.9zm-2.8 0h1.4v15.9h-1.4v-15.9zm-2.9 0h1.4v15.9h-1.4v-15.9z"/>
		<line class="st10" x1="460.7" x2="460.7" y1="59.3" y2="59.3"/>
		<line class="st10" x1="457.8" x2="457.8" y1="43.5" y2="43.5"/>
		<line class="st10" x1="466.5" x2="466.5" y1="43.5" y2="43.5"/>
		<line class="st10" x1="457.8" x2="457.8" y1="59.3" y2="59.3"/>
		<line class="st10" x1="466.5" x2="466.5" y1="59.3" y2="59.3"/>
		<line class="st10" x1="469.3" x2="469.3" y1="59.3" y2="59.3"/>
		<line class="st10" x1="472.2" x2="472.2" y1="59.3" y2="59.3"/>
		<line class="st10" x1="463.6" x2="463.6" y1="59.3" y2="59.3"/>
		<line class="st10" x1="469.3" x2="469.3" y1="43.5" y2="43.5"/>
		<line class="st10" x1="463.6" x2="463.6" y1="43.5" y2="43.5"/>
		<line class="st10" x1="472.2" x2="472.2" y1="43.5" y2="43.5"/>
		<line class="st10" x1="460.7" x2="460.7" y1="43.5" y2="43.5"/>
		<polygon class="st7" points="458.6 59.3 458.6 43.5 457.8 43.5 457.1 43.5 457.1 59.3 457.8 59.3"/>
		<polygon class="st7" points="467.2 59.3 467.2 43.5 466.5 43.5 465.7 43.5 465.7 59.3 466.5 59.3"/>
		<polygon class="st7" points="470.1 59.3 470.1 43.5 469.3 43.5 468.6 43.5 468.6 59.3 469.3 59.3"/>
		<polygon class="st7" points="473 59.3 473 43.5 472.2 43.5 471.5 43.5 471.5 59.3 472.2 59.3"/>
		<polygon class="st7" points="464.3 59.3 464.3 43.5 463.6 43.5 462.8 43.5 462.8 59.3 463.6 59.3"/>
		<polygon class="st7" points="461.4 59.3 461.4 43.5 460.7 43.5 460 43.5 460 59.3 460.7 59.3"/>
		<line class="st10" x1="472.2" x2="472.2" y1="65.4" y2="65.4"/>
		<line class="st10" x1="460.7" x2="460.7" y1="65.4" y2="65.4"/>
		<line class="st10" x1="460.7" x2="460.7" y1="81.3" y2="81.3"/>
		<line class="st10" x1="463.6" x2="463.6" y1="81.3" y2="81.3"/>
		<line class="st10" x1="457.8" x2="457.8" y1="65.4" y2="65.4"/>
		<line class="st10" x1="457.8" x2="457.8" y1="81.3" y2="81.3"/>
		<line class="st10" x1="466.5" x2="466.5" y1="65.4" y2="65.4"/>
		<line class="st10" x1="463.6" x2="463.6" y1="65.4" y2="65.4"/>
		<line class="st10" x1="469.3" x2="469.3" y1="65.4" y2="65.4"/>
		<line class="st10" x1="469.3" x2="469.3" y1="81.3" y2="81.3"/>
		<line class="st10" x1="472.2" x2="472.2" y1="81.3" y2="81.3"/>
		<line class="st10" x1="466.5" x2="466.5" y1="81.3" y2="81.3"/>
		<polygon class="st7" points="473 81.3 473 65.4 472.2 65.4 471.5 65.4 471.5 81.3 472.2 81.3"/>
		<polygon class="st7" points="461.4 81.3 461.4 65.4 460.7 65.4 460 65.4 460 81.3 460.7 81.3"/>
		<polygon class="st7" points="470.1 81.3 470.1 65.4 469.3 65.4 468.6 65.4 468.6 81.3 469.3 81.3"/>
		<polygon class="st7" points="467.2 81.3 467.2 65.4 466.5 65.4 465.7 65.4 465.7 81.3 466.5 81.3"/>
		<polygon class="st7" points="458.6 81.3 458.6 65.4 457.8 65.4 457.1 65.4 457.1 81.3 457.8 81.3"/>
		<polygon class="st7" points="464.3 81.3 464.3 65.4 463.6 65.4 462.8 65.4 462.8 81.3 463.6 81.3"/>
		<path class="st11" d="m477.5 82.9h19v-19h-19v19zm15.9-17.5h1.4v15.9h-1.4v-15.9zm-2.8 0h1.4v15.9h-1.4v-15.9zm-2.9 0h1.4v15.9h-1.4v-15.9zm-2.9 0h1.4v15.9h-1.4v-15.9zm-2.9 0h1.4v15.9h-1.4v-15.9zm-2.8 0h1.4v15.9h-1.4v-15.9z"/>
		<line class="st10" x1="488.4" x2="488.4" y1="65.4" y2="65.4"/>
		<line class="st10" x1="482.7" x2="482.7" y1="81.3" y2="81.3"/>
		<line class="st10" x1="479.8" x2="479.8" y1="65.4" y2="65.4"/>
		<line class="st10" x1="482.7" x2="482.7" y1="65.4" y2="65.4"/>
		<line class="st10" x1="485.5" x2="485.5" y1="81.3" y2="81.3"/>
		<line class="st10" x1="485.5" x2="485.5" y1="65.4" y2="65.4"/>
		<line class="st10" x1="488.4" x2="488.4" y1="81.3" y2="81.3"/>
		<line class="st10" x1="491.3" x2="491.3" y1="81.3" y2="81.3"/>
		<line class="st10" x1="494.2" x2="494.2" y1="65.4" y2="65.4"/>
		<line class="st10" x1="494.2" x2="494.2" y1="81.3" y2="81.3"/>
		<line class="st10" x1="479.8" x2="479.8" y1="81.3" y2="81.3"/>
		<line class="st10" x1="491.3" x2="491.3" y1="65.4" y2="65.4"/>
		<polygon class="st7" points="486.3 81.3 486.3 65.4 485.5 65.4 484.8 65.4 484.8 81.3 485.5 81.3"/>
		<polygon class="st7" points="483.4 81.3 483.4 65.4 482.7 65.4 481.9 65.4 481.9 81.3 482.7 81.3"/>
		<polygon class="st7" points="489.2 81.3 489.2 65.4 488.4 65.4 487.7 65.4 487.7 81.3 488.4 81.3"/>
		<polygon class="st7" points="480.6 81.3 480.6 65.4 479.8 65.4 479.1 65.4 479.1 81.3 479.8 81.3"/>
		<polygon class="st7" points="494.9 81.3 494.9 65.4 494.2 65.4 493.4 65.4 493.4 81.3 494.2 81.3"/>
		<polygon class="st7" points="492.1 81.3 492.1 65.4 491.3 65.4 490.6 65.4 490.6 81.3 491.3 81.3"/>
	<path class="st12" d="m376.4 119l1.6 2.9c1 1.7 2.1 3.4 3.3 5s1.6 2.5 2.4 3.5c12.8 14.3 31.8 21.2 53.7 21.2 48.6 0 89.9-21.5 108.2-70 13 1.3 25.4-2 31.1-13-9-5.2-20.6-3.5-27.3-0.2 1.4-11.4-7.1-20.4-12.4-24.7-6.1 7.1-7.1 25.6 2.5 33.4-5.4 4.8-16.6 9.1-28.2 9.1h-140.8v0.1c-1.1 12.1 1 23.2 5.9 32.7z"/>
	<path class="st13" d="m378 121.9c1 1.7 2.1 3.4 3.3 5s1.6 2.5 2.4 3.5c12.8 14.3 31.8 21.2 53.7 21.2 41.3 0 77.3-15.6 98.4-49.9h-164.9c0.9 6.2 2.8 12 5.4 17.3l1.7 2.9z"/>
	<path class="st14" d="m437.4 151.7c2 0 4-0.1 6-0.1-13-6.2-20.1-14.5-24.1-23.7l-36.3 1.6c0.2 0.3 0.4 0.6 0.6 1 12.8 14.3 31.8 21.2 53.8 21.2z"/>
	<path class="st13" d="m376.4 119l1.6 2.9c1 1.7 2.1 3.4 3.3 5s1.6 2.5 2.4 3.5c12.8 14.3 31.8 21.2 53.7 21.2 48.6 0 89.9-21.5 108.2-70 13 1.3 25.4-2 31.1-13.1-8.6-5-19.6-3.7-26.4-0.6-20 25.8-48.8 48.4-79.6 60.2-27.5 10.6-51.5 10.6-68.1 2.1-1.8-1-3.5-2.1-5.3-3.2-12.1-8.5-19-22.5-18.4-41h-8.3v0.1c-1.2 12.3 0.9 23.4 5.8 32.9z"/>
	<path class="st7" d="m393.7 130.7c-4.5 0-9-0.2-13.4-0.4-0.9 0-1.6-0.8-1.5-1.7 0-0.9 0.8-1.6 1.7-1.5 13.5 0.7 27.7 0.9 40.2-3 0.9-0.3 1.8 0.2 2 1.1 0.3 0.9-0.2 1.8-1.1 2-8.8 2.7-18.4 3.5-27.9 3.5z"/>
	<path class="st14" d="m434.7 119c0 2.9-2.4 5.2-5.2 5.2-2.9 0-5.3-2.4-5.3-5.2s2.4-5.3 5.3-5.3c2.8 0 5.2 2.4 5.2 5.3z"/>
	<path class="st7" d="m430.8 115.5c-0.5 0.3-0.8 0.8-0.8 1.3 0 0.8 0.7 1.5 1.5 1.5 0.6 0 1.1-0.3 1.3-0.8 0.2 0.4 0.3 0.9 0.3 1.4 0 2.1-1.7 3.8-3.8 3.8s-3.8-1.7-3.8-3.8 1.7-3.8 3.8-3.8c0.6 0.1 1.1 0.2 1.5 0.4z"/>
	<path class="st7" d="m336.6 102.8h244.2c-5.3-1.3-16.8-3.2-14.9-10.1-9.7 11.2-33 7.9-38.9 2.3-6.6 9.5-44.7 5.9-47.4-1.5-8.2 9.6-33.7 9.6-41.9 0-2.7 7.4-40.8 11-47.4 1.5-5.9 5.5-29.2 8.9-38.9-2.3 2 7-9.5 8.8-14.8 10.1"/>
	<line class="st3" x1="943.8" x2="1003.6" y1="88.1" y2="88.1"/>
	<path class="st4" d="m1009.6 88.1c-2.8 1.1-6.4 2.9-8.5 4.8l1.7-4.8-1.7-4.8c2.1 1.9 5.7 3.7 8.5 4.8z"/>
	<line class="st3" x1="945.4" x2="1009.6" y1="72.3" y2="72.3"/>
	<path class="st4" d="m939.4 72.3c2.8 1.1 6.4 2.9 8.5 4.8l-1.7-4.8 1.7-4.8c-2.2 1.9-5.7 3.7-8.5 4.8z"/>
	<path class="st15" d="m1180.1 83.3v36.9c0 1.5-0.6 2.5-1.9 3.3-11.6 6.7-23.1 13.4-34.7 20-9.8 5.6-19.6 11.3-29.3 16.9-1.2 0.7-2.4 0.7-3.6 0-18.1-10.5-36.2-20.9-54.4-31.4-3.3-1.9-6.5-3.8-9.8-5.6-1.2-0.7-1.7-1.7-1.7-3v-74.2c0-1.4 0.6-2.4 1.7-3l31.2-18c10.8-6.2 21.6-12.5 32.4-18.7 1-0.6 1.9-1 3.1-0.7 0.4 0.1 0.8 0.3 1.1 0.5 13 7.5 26.1 15 39.1 22.6 8.2 4.8 16.5 9.5 24.7 14.3 1 0.6 1.8 1.3 2 2.5 0.1 0.3 0.1 0.6 0.1 0.9v36.7zm-90.2-13.9c0.3 0.4 0.5 0.7 0.8 1 1.9 2.3 3.8 4.5 5.7 6.8 2.4 2.9 4.8 5.8 7.2 8.7 1.9 2.3 3.8 4.5 5.7 6.7 2.4 2.9 4.8 5.8 7.2 8.7l6 7.2c2.3 2.8 4.6 5.6 7 8.3 3.4 3.8 7.7 5.2 12.7 5 1.6-0.1 3.2-0.5 4.6-1.3 2.9-1.7 4.5-4.1 4.5-7.5v-12.1-48c0-0.6-0.1-1.2-0.2-1.8-0.9-4.4-5.2-7.7-10.6-6.6-3.8 0.8-6.8 4.4-6.8 8.5v42.9 0.6c-0.7-0.7-1.4-1.5-2-2.2-1.2-1.4-2.4-2.8-3.6-4.3-1.7-2-3.4-4.1-5.1-6.1-1.1-1.4-2.3-2.7-3.4-4.1-1.2-1.4-2.4-2.9-3.6-4.4-1.3-1.6-2.6-3.1-3.9-4.6-1.2-1.4-2.3-2.8-3.5-4.2-1.7-2-3.4-4-5.1-6s-3.4-4.1-5.1-6.2c-1.2-1.4-2.4-2.8-3.5-4.2-1.8-2.3-4.1-4-6.8-4.9-2.9-1-5.9-1.4-8.9-0.6-3.4 0.9-6.8 3.8-6.8 8.8 0.1 19.9 0 39.8 0 59.7 0 1.9 0.5 3.6 1.6 5.1 1.6 2.2 3.8 3.4 6.6 3.6 2.7 0.1 5.1-0.7 7.1-2.7 1.5-1.6 2.3-3.5 2.3-5.7v-43.3c-0.1-0.2-0.1-0.4-0.1-0.8z"/>
	<path class="st16" d="m1089.9 69.4v0.7 43.3c0 2.2-0.8 4.1-2.3 5.7-1.9 2-4.3 2.9-7.1 2.7-2.7-0.1-4.9-1.4-6.6-3.6-1.1-1.5-1.6-3.2-1.6-5.1 0-19.9 0.1-39.8 0-59.7 0-4.9 3.4-7.9 6.8-8.8 3-0.8 6-0.4 8.9 0.6 2.8 1 5 2.7 6.8 4.9 1.1 1.4 2.3 2.8 3.5 4.2 1.7 2.1 3.4 4.1 5.1 6.2 1.7 2 3.4 4 5.1 6 1.2 1.4 2.3 2.8 3.5 4.2 1.3 1.6 2.6 3.1 3.9 4.6 1.2 1.4 2.4 2.9 3.6 4.4 1.1 1.4 2.3 2.7 3.4 4.1 1.7 2 3.4 4.1 5.1 6.1 1.2 1.4 2.4 2.8 3.6 4.3 0.6 0.7 1.2 1.5 2 2.2v-0.6-42.9c0-4.2 2.9-7.8 6.8-8.5 5.5-1.1 9.7 2.2 10.6 6.6 0.1 0.6 0.2 1.2 0.2 1.8v48 12.1c0 3.4-1.6 5.9-4.5 7.5-1.4 0.8-2.9 1.2-4.6 1.3-5 0.2-9.3-1.3-12.7-5-2.4-2.7-4.7-5.6-7-8.3l-6-7.2c-2.4-2.9-4.8-5.8-7.2-8.7-1.9-2.3-3.8-4.5-5.7-6.7-2.4-2.9-4.8-5.8-7.2-8.7-1.9-2.3-3.8-4.5-5.7-6.8-0.2-0.2-0.4-0.5-0.7-0.9z"/>
<text class="st4 st5 st6" transform="translate(1065.3 202.19)">Nginx</text>
	<path class="st17" d="m1360.4 79.1c-4.1-6.9-9.6-12.7-14.5-18.9-6.3-8-12.7-15.9-19.1-23.9-4.6-5.7-4.2-13.4 0.9-18.7 1.4-1.5 2.8-2.9 4.3-4.3 5.7-5.2 14.8-4.6 19.8 1.2 10.6 12.3 21.2 24.7 31.8 37.1 6.7 7.8 13.5 15.7 20.2 23.5 4.8 5.6 4.6 13.2-0.2 18.7l-38.7 43.8c-0.4 0.5-0.9 1-1.4 1.5 0.1-0.3 0.2-0.6 0.3-0.8 4.4-9.4 6.4-19.3 5.9-29.6-0.4-8.9-2.7-17.3-6.7-25.2-0.8-1.6-1.8-3-2.6-4.4z"/>
	<path class="st18" d="m1360.4 79.1c0.8 1.4 1.8 2.8 2.5 4.3 4.1 7.9 6.3 16.3 6.7 25.2 0.5 10.4-1.5 20.2-5.9 29.6-0.1 0.3-0.2 0.5-0.3 0.8l-0.2 0.2c-2.1 2.4-4.2 4.8-6.3 7.2-1.7 1.9-3.3 3.8-5 5.7-5.4 6.1-14.3 6.6-20.3 1-1.5-1.4-3-2.9-4.4-4.4-4.8-5.3-4.8-13-0.2-18.5 10.3-12.3 20.6-24.7 30.8-37 3.2-3.9 3.9-8.4 2.5-13.2 0.2-0.4 0.2-0.7 0.1-0.9z"/>
	<path class="st17" d="m1363.4 139.2l0.2-0.2c-0.1 0.1-0.2 0.1-0.2 0.2z"/>
<text class="st4 st5 st6" transform="translate(1065.3 202.19)">Nginx</text>
<text class="st4 st5 st6" transform="translate(1251.7 202.19)">Play Backend</text>
	<line class="st3" x1="1221.2" x2="1281" y1="88.1" y2="88.1"/>
	<path class="st4" d="m1287 88.1c-2.8 1.1-6.4 2.9-8.5 4.8l1.7-4.8-1.7-4.8c2.1 1.9 5.7 3.7 8.5 4.8z"/>
	<line class="st3" x1="1222.8" x2="1287" y1="72.3" y2="72.3"/>
	<path class="st4" d="m1216.8 72.3c2.8 1.1 6.4 2.9 8.5 4.8l-1.7-4.8 1.7-4.8c-2.2 1.9-5.7 3.7-8.5 4.8z"/>
</svg>
