<?xml version="1.0" encoding="UTF-8"?>
<svg enable-background="new 0 0 572.4 572.6" version="1.1" viewBox="0 0 572.4 572.6" xml:space="preserve" xmlns="http://www.w3.org/2000/svg">
<style type="text/css">
	.st0{fill:#31B44B;}
	.st1{fill:#FCFEFC;}
</style>
	<path class="st0" d="m572.4 286.1c1.5 157.1-129.3 289.3-291.9 286.4-150.6-2.6-284.4-128-280.4-294.4 3.6-149.8 129.1-282.3 294.8-278 149.7 3.9 278.2 127.5 277.5 286zm-462 163h152.4v-62.1c-9.1-0.6-17.3-1.2-23.8-1.6-8-36.5-1.3-65.4 36.4-81.1 16.6 26.1 33.8 53 52.6 82.4h-32.4v63.1h188.1v-64.6c-20.6 6.2-32.1-3.4-41.6-19.7-14.8-25.3-31.2-49.5-47-74.2-12.7-19.8-25.4-39.6-38.3-59.6 13.3-11.4 24.5-21.8 36.5-31.1 18.6-14.5 32.4-38.2 62.1-30.8v-61h-159.9v60.7h36.1c-33.2 28.8-62.1 53.8-93.2 80.8v-80.1c8.9-0.6 16.5-1.1 24.7-1.7v-59.8h-152.2v60.3c9 0.5 16.7 0.9 24.6 1.3v215.5c-9 0.5-16.7 0.9-25.1 1.4v61.9z"/>
	<path class="st1" d="m110.4 449.1v-62.1c8.4-0.5 16.1-0.9 25.1-1.4v-215.5c-8-0.4-15.7-0.8-24.6-1.3v-60.3h152.2v59.8c-8.3 0.6-15.9 1.1-24.7 1.7v80.1c31.1-27 60-52.1 93.2-80.8h-36.1v-60.7h159.9v61c-29.7-7.4-43.5 16.4-62.1 30.8-12 9.3-23.2 19.7-36.5 31.1 12.9 20 25.6 39.8 38.3 59.6 15.8 24.7 32.3 48.9 47 74.2 9.5 16.3 21 25.8 41.6 19.7v64.6h-188.1v-63.1h32.4c-18.8-29.4-35.9-56.3-52.6-82.4-37.7 15.7-44.4 44.6-36.4 81.1 6.5 0.4 14.7 1 23.8 1.6v62.1c-50.1 0.2-100.4 0.2-152.4 0.2z"/>
</svg>
