<?xml version="1.0" encoding="utf-8"?>
<!-- Generator: Adobe Illustrator 23.0.2, SVG Export Plug-In . SVG Version: 6.00 Build 0)  -->
<svg version="1.1" id="Layer_1" xmlns="http://www.w3.org/2000/svg" xmlns:xlink="http://www.w3.org/1999/xlink" x="0px" y="0px"
	 viewBox="0 0 873.5 704.2" style="enable-background:new 0 0 873.5 704.2;" xml:space="preserve">
<style type="text/css">
	.st0{fill:#CDE2C3;}
	.st1{fill:#76C377;}
	.st2{font-family:'ArialMT';}
	.st3{font-size:12px;}
	.st4{fill:#CBE7EF;}
	.st5{fill:#CAEFE3;}
	.st6{font-size:13.329px;}
	.st7{fill:#F3DCF4;}
	.st8{font-size:12.0016px;}
	.st9{fill:#D6DAED;}
	.st10{fill:#E8DCF4;}
	.st11{fill:#EEEFD3;}
	.st12{fill:#F4DFD0;}
	.st13{fill:#F9D2D2;}
	.st14{fill:none;stroke:#2111BC;stroke-width:2;stroke-miterlimit:10;}
	.st15{fill:none;stroke:#8C1738;stroke-width:6;stroke-miterlimit:10;}
</style>
<g>
	<polygon class="st0" points="50,73.7 68.1,73.7 77.7,79.6 82.4,91 94.6,96.8 113.1,88.3 114.7,69 103.9,53.3 124.1,39.5 
		128.3,26.7 128,25.2 119.8,25.7 110.5,21 98.2,29.2 90,23.4 74.3,29.2 55,29.2 39.2,28.6 29.2,41.5 29.2,60.8 49.1,68.4 	"/>
	<circle class="st1" cx="77.1" cy="54.7" r="5.8"/>
	<text transform="matrix(1 0 0 1 72.936 58.46)" class="st2 st3">0</text>
</g>
<g>
	<path class="st0" d="M137.8,72.7l9,14.1c3,0.9,25,7.3,26.1,7.6c1,0.3,17.4,3.6,26,5.3l0.3,0.1l7.1-13.1l24.6-6.4l14.6,1.8
		c0,0-0.6-11.1-2.3-11.1c-1.8,0-31.6-3.5-31.6-3.5s-7-5.8-7-7.6s4.7-16.4,4.7-16.4s6.4-5.3,1.8-7.6s-7-6.4-12.3-7s-15.5-4.1-18-1.8
		s-5.4-4.7-7.8-5.3s-13.4-0.6-16.9,2.9s-18.7,0-18.7,0l-7.5,0.5l0.4,1.8l-4.6,13.9L106.6,54l9.7,14
		C116.3,67.9,137.8,72.7,137.8,72.7z"/>
	<circle class="st1" cx="153.4" cy="50.2" r="5.8"/>
	<text transform="matrix(1 0 0 1 149.7167 54.7002)" class="st2 st3">1</text>
	<rect x="175.6" y="63.3" width="16.6" height="16.6"/>
</g>
<g>
	<path class="st0" d="M34.6,147.7l17.7-3.4l20-9.4l28.2-15.9c21.4-14.8,23.1-14.7,24.7-13.9c1.9,0.6,15,2.8,23.9,4.3l30.3,4.6l24,15
		l6.6-1.8c-3.3-5.1-7.5-11.7-9-12.5c-1.9-1-2.3-10.1-2.3-13.1h-0.2c-1-0.2-24.8-5-26.1-5.3s-25.5-7.4-26.6-7.7l-0.4-0.1l-8.9-14
		L116.4,70l-1.7,19.7l-20.3,9.4l-13.7-6.5L76,81l-8.7-5.2h-17l0.6,3.9c0,0-9.9,3.5-11.7,3.5S23.4,92,23.4,92s0,18.7,0,20.5v14.6
		l10.5,17.5L34.6,147.7L34.6,147.7z"/>
	<circle class="st1" cx="54.4" cy="112.2" r="5.8"/>
	<text transform="matrix(1 0 0 1 51.071 116.46)" class="st2 st3">2</text>
</g>
<g>
	<path class="st0" d="M42.1,216.9l12.3,7.6l-13.4,7l26.9,8.2l14.8,7.4l13.1-14.7l1.6-25.2l-19.4-5L70.9,171l8.7-10.1l-7.4-11.4
		l2.1-9.1l-20.5,9.5l-17.9,3.5l3.3,15.6l4.1,22.2l-11.1,14c0,0-15.8-2.9-15.8-1.2C16.4,205.8,42.1,216.9,42.1,216.9z"/>
	<circle class="st1" cx="56.9" cy="196.9" r="5.8"/>
	<text transform="matrix(1 0 0 1 56.492 198.02)" class="st2 st3">3</text>
</g>
<g>
	<path class="st0" d="M82.8,197.5l20.6,5.3l-2.1,31.9l-3.5,4l14.4,0.1l8.7,4l23.9-2.4c2.3-13.2,3.2-13.2,4-13.2
		c0.7-0.2,6.3-3,11.4-5.7v-32.1L148.7,166l5.9-23.8l20.9-9.9l6.9-9.6l-5.1-3.2l-29.1-4.4c-16.5-2.7-22.2-3.8-24.2-4.3
		c-2.7,1.2-12.1,7.4-20.4,13.1l-0.2,0.1L81,136.6l-2.8,11.8l8.4,12.9L77,172.5L82.8,197.5L82.8,197.5z"/>
	<circle class="st1" cx="123.2" cy="174.5" r="5.8"/>
	<text transform="matrix(1 0 0 1 119.6 177.31)" class="st2 st3">4</text>
</g>
<g>
	<path class="st4" d="M176.9,133.7l-20.5,9.7l-5.5,22.2l5.2,10.6l38.7-3.6l21.3,13.3l29.6-11.4l25.8,7.9l18.1-31.7l0.5-0.1
		c11.5-1.9,24.3-4.4,26.4-5.3c0.2-2.7,0.1-19.7,0-31.2L302.7,84l0.5-23.8l0,0L287,64.9l-14.6,10.5l4.1,11.1l17,5.3l-8.8,18.1
		c0,0,0.6,5.3,2.3,7.6c1.8,2.3,14.6,5.3,14.6,5.3s-8.2,9.9-10.5,9.9s-32.1-0.6-32.1-0.6v9.9l-11.1,5.3V159l-14.6,0.6
		c0,0-5.9-12.9-5.9-14.6s-2.3-11.7-2.3-11.7s-9.4,1.2-11.1-0.6c-0.1-0.1-0.3-0.3-0.4-0.5l-1.1,0.2l-9.8,2.7l-18.5-11.5L176.9,133.7
		L176.9,133.7z"/>
	<circle class="st1" cx="194.5" cy="151.3" r="5.8"/>
	<text transform="matrix(1 0 0 1 191.22 154.66)" class="st2 st3">5</text>
</g>
<g>
	<path class="st4" d="M133.9,330.9l11.8-3.7l-5.7-29l-11.3-24.8h-28.3l-5.9-4.6c-0.6,0.9-1.2,1.5-1.6,1.8
		c-2.3,1.8-25.7,3.5-28.1,4.7s-19.3,5.3-21,5.3s-14-8.2-15.8-11.1s-6.4-11.7-11.7-11.7S0.6,272.4,0,275.3s14.6,17,14.6,17l19.3,1.2
		l21,3.5l17.5,22.6l33.3-6.9L133.9,330.9L133.9,330.9z"/>
	<circle class="st1" cx="76.5" cy="294.3" r="5.8"/>
	<text transform="matrix(1 0 0 1 74.0473 298.3766)" class="st2 st3">6</text>
	<rect x="105.2" y="286" width="16.6" height="16.6"/>
</g>
<g>
	<path class="st4" d="M101.1,271.5h28.8l11.9,26.2l5.7,28.9l22-7l19.9-24.4l17.7-7.1l-2.5-9.4c-3,0.6-12.6,2.4-15.4,2.4
		c-3.5,0-6.1-12.5-7.3-20v-0.2l4.1-11.8l-1-8.1l-12.3-8.4l-11.5-9.5c-6.3,3.4-10.2,5.4-11.7,5.8c-0.6,1.2-1.9,7.1-2.8,12.4l-0.1,0.7
		l-25.9,2.6l-9-4.2H96.1l-8.1,9.1l14.2,6.4c0,0-3.7,6.8-6.7,11.2L101.1,271.5L101.1,271.5z"/>
	<circle class="st1" cx="158.8" cy="268.2" r="5.8"/>
	<text transform="matrix(1 0 0 1 155.16 273.72)" class="st2 st3">7</text>
</g>
<g>
	<path class="st4" d="M240.1,280.1v-29.8l-17.9-40.6l5.9-26.5l-12.4,4.8l-21.5-13.5l-37.3,3.5l5.3,10.8v32.7l11.6,9.6l12.9,8.8
		l1.2,9.4l-4.1,11.7c1.6,9.4,4.1,17.7,5.4,18.1c3,0,15.8-2.5,15.9-2.5l0.9-0.2l2.9,10.9l6.8-2.7L240.1,280.1L240.1,280.1z"/>
	<circle class="st1" cx="194" cy="205.5" r="5.8"/>
	<text transform="matrix(1 0 0 1 188.7157 208.73)" class="st2 st3">8</text>
</g>
<g>
	<polygon class="st4" points="292.1,187.8 272.3,184.5 272.2,184.6 245.6,176.4 230.3,182.4 224.2,209.5 242.1,250.1 242.1,279.8 
		247.3,278.8 260.8,287.9 295.4,236.2 	"/>
	<circle class="st1" cx="262.3" cy="239.1" r="5.8"/>
	<text transform="matrix(1 0 0 1 259.011 243.8002)" class="st2 st3">9</text>
	<rect x="252.3" y="198" width="16.6" height="16.6"/>
</g>
<g>
	<path class="st4" d="M297.3,235.8l23.8,8l-5.1-8.7l18.8-10l-2.1-19.5l9.9-4.6c-3.5-6.4-8.8-15.9-9.5-16.8
		c8.1,6.5-3.2-2.7-16.5-15.4l-0.4-0.4l2.5-15.3l-2.1-6.1c-2.4,0.9-8.7,2.4-26,5.3l-17.3,30.4l20.6,3.4L297.3,235.8L297.3,235.8z"/>
	<circle class="st1" cx="314.8" cy="198.6" r="5.8"/>
	<text transform="matrix(1 0 0 1 304.8649 208.3065)" class="st2 st3">10</text>
</g>
<g>
	<path class="st5" d="M273.6,319.6c0,0.5-0.9,2-2.3,3.9l13,19c4.7,2.5,9.7,5,13.6,6.9l11.5-9l-8.4-8l-2.2-9.4l2.1-15.2l-13.4-24.7
		l-15-9.5l-10.2,15.2l9.4,6.3C271.8,295.2,273.6,317.7,273.6,319.6z"/>
	<circle class="st1" cx="284.2" cy="310.7" r="5.8"/>
	<text transform="matrix(0.9003 0 0 1 277.8301 313.5693)" class="st2 st6">11</text>
</g>
<g>
	<path class="st5" d="M333.3,325.9c4.6,0.5,8.3,0.9,11.3,1.3l-5.8-21.2l3-19.8l-14.4-17.3l-5-22.7l-25.6-8.6l-23.1,34.5l15.4,9.7
		l13.9,25.7l-2.1,15.5l2,8.5l8.2,7.8l22-13.4H333.3L333.3,325.9z"/>
	<circle class="st1" cx="317.9" cy="287.9" r="5.8"/>
	<text transform="matrix(1 0 0 1 308.485 292.52)" class="st2 st3">12</text>
</g>
<g>
	<path class="st7" d="M358.5,329.8c0.5,0.6,6.5,5.3,10.8,8.8c1,0.8,1.9,1.5,2.7,2.2l16.3-1.3l-7.6-20.3l8.4-31l2.5-34.9l-20.4-12.1
		l-25.5-19.7l-27.1,14.4l5.2,8.9l0.2,0.1l5.2,23.3l14.6,17.6l-3,20.3l6,21.6C357.7,328.9,358.3,329.6,358.5,329.8L358.5,329.8z"/>
	<circle class="st1" cx="352.6" cy="254.6" r="5.8"/>
	<text transform="matrix(1 0 0 1 343.5683 256.1223)" class="st2 st3">17</text>
	<rect x="356.8" y="286" width="16.6" height="16.6"/>
</g>
<g>
	<path class="st7" d="M336.6,224.1l9.3-4.9l26.4,20.4l20.1,11.9l9-10.9c-0.5-0.6-0.8-1.1-0.9-1.4c-0.6-1.8-2.9-16.4-2.9-16.4
		l4.7-7.6l8.8-4.7l-13.4-3.5l-8.2,3.5l-2.9-11.1c0,0,0.5-1,1.1-2.3l-14.2-0.4l-12.4-5.6l-17.3,7.5c0.4,0.7,0.8,1.5,1.3,2.3l0.5,0.9
		l-10.5,4.9L336.6,224.1L336.6,224.1z"/>
	<circle class="st1" cx="369.2" cy="213.1" r="5.8"/>
	<text transform="matrix(1 0 0 1 361.4334 216.86)" class="st2 st3">16</text>
</g>
<g>
	<path class="st7" d="M436.4,309.4v-15.8l9.5-2.1v-9.3l-11-4.8l6.2-13l0.4-0.7l-4.7-10.6c0,0-5.9-8.3-7.6-7.6s-6.4-6.4-8.2-6.4
		s-12.3,9.9-12.3,9.9s-3.7-3.9-6.1-6.9l-9,11l-2.5,35.4l-8.3,30.6l7.4,19.7l9.2-7.4l14.1,1.6h22.3l-7.1-14L436.4,309.4L436.4,309.4z
		"/>
	<circle class="st1" cx="414.3" cy="292" r="5.8"/>
	<text transform="matrix(1 0 0 1 408.13 296.06)" class="st2 st3">18</text>
</g>
<g>
	<path class="st7" d="M387,414.4l1.7-5.7l0.9,0.3c0.6,0.2,15,4.3,16.2,4.7c0.7,0,4.4-1.3,7.9-2.8l-8.5-9.3l7-14.8l-20.5-14.9
		c-4-6.7-14.5-24.1-14.9-24.7c-0.4-0.4-4.8-3.9-8.7-7c-6.8-5.4-10.2-8.2-11-9c-1.5-0.7-13.1-2.2-23.6-3.4l-22,13.4l-11.6,9.1
		c2.7,1.3,4.7,2.3,5.5,2.5c1.9,0.1,3.1,1,6.5,15.4l7.4-3.5l20.5,7.6c0,0,10.5,3.5,13.4,7s19.3,18.7,19.3,18.7l14,15.8
		C386.4,413.9,386.6,414.1,387,414.4L387,414.4z"/>
	<circle class="st1" cx="338.4" cy="350.4" r="5.8"/>
	<text transform="matrix(1 0 0 1 330.16 354.9044)" class="st2 st3">19</text>
</g>
<g>
	<path class="st7" d="M378.4,346.1c0.4,0.6,13,21.4,14.8,24.6l20.4,14.8l24.7-2.4l16.3-13.1c2.6-3.4,5.3-7.6,5.2-8.6
		c-0.6-1.4-4.6-10.9-5.3-12.5l-17.5-14h-23.6l-13.5-1.6l-9.8,7.9l-15.9,1.3C377.4,345.2,378.2,345.8,378.4,346.1L378.4,346.1z"/>
	<circle class="st1" cx="421.2" cy="358.7" r="5.8"/>
	<text transform="matrix(1 0 0 1 414.27 362.46)" class="st2 st3">20</text>
</g>
<g>
	<path class="st7" d="M518.5,319.6l-7,3.6l-12.3-7h14l-1.8-11.1l-18.1,4.7l-7-4.7l-11.7-5.9l-0.6-9.4l-20.5-7c0,0,18.1-5.3,17-9.9
		s-12.3-9.9-13.7-9.9s-13.1,5.9-13.1,5.9l-1.3-2.9l-5,10.5l10.3,4.5v12l-9.5,2.1V310l-7.4,9.1l7.2,14.1l18,14.4l0.1,0.2
		c0,0.1,4.7,11.2,5.4,12.8c0.7,1.5-1.6,5.2-4.1,8.6l21.3-3.9l15.3,4.3c0.5-1.3,2.1-6.4-2.5-7.9l-5.3-1.8l5.3-9.9l1.8-7l9.9-2.9
		c0,0,13.4-8.8,15.2-8.8s8.8-12,8.8-11.8C527.3,319.8,518.5,319.6,518.5,319.6L518.5,319.6z"/>
	<circle class="st1" cx="473.2" cy="337.7" r="5.8"/>
	<text transform="matrix(1 0 0 1 468.0133 337.6522)" class="st2 st3">21</text>
	<rect x="452.1" y="304.1" width="16.6" height="16.6"/>
</g>
<g>
	<path class="st7" d="M478.7,367.4l-23,4.2L439.1,385l-25.1,2.4l-6.5,13.8l9.4,10.3l-1.2,0.5c-4,1.8-9.1,3.9-10.5,3.4
		c-1.1-0.4-12-3.5-15.2-4.4l-1.4,4.8c3.8,3.7,11.4,11.3,11.4,12.6c0,1.8,18.7,5.3,18.7,5.3l7.6-5.3l17.5,5.3l10.5-9.9
		c0,0,2.9-12.3,5.3-12.9s23.4-9.4,23.4-9.4l15.8-12.9l-4.2-16.9L478.7,367.4L478.7,367.4z"/>
	<circle class="st1" cx="438.4" cy="405.7" r="5.8"/>
	<text transform="matrix(1 0 0 1 434.16 406.41)" class="st2 st3">22</text>
</g>
<g>
	<path class="st5" d="M204.4,459.1l20.8-33.5l-14.4-25.9l18.6-26.4l10.5-16.6l-5.4-6.3l-5.9,2.6l-22.8-8.8c0,0-14,9.4-8.8,9.4
		s9.9,6.4,9.9,6.4l12.3,4.1l-16.4,11.1l-18.1,14l-3.9,7c0,0-14.2,2.9-18.9,4.1s-27.5,8.8-29.2,9.4c-1.8,0.6-19.3,5.9-21,6.4
		s-24,12.3-24,12.3s7,15.8,2.9,15.8h25.1l39.2-10.5l15.2-11.1l10.7,11.1v22.2l-10.7,7.6l-15.8,8.8l-1.8,18.7h21l15.3-1.5
		L204.4,459.1L204.4,459.1z"/>
	<circle class="st1" cx="194.1" cy="417.7" r="5.8"/>
	<text transform="matrix(0.9998 -2.159712e-02 2.159712e-02 0.9998 191.3497 421.6991)" class="st2 st8">15</text>
</g>
<g>
	<path class="st5" d="M193.7,502.6l10.2-2.2l23.8-36.9l25.6,9.3l28.3-2.7l9,4.2c-0.7-4.3-1.3-7.4-1.8-8.3c-1.2-2.3-12.3-24-9.9-28.6
		s0-36.2,0-36.2l6.5-12l-28.8-5.8l-18.4-5.3l-3.4-9.3l-3.7,5.9l-17.9,25.4l14.4,25.9l-21.5,34l-14.9,29.3l6.4-0.6L193.7,502.6
		L193.7,502.6z"/>
	<circle class="st1" cx="251.2" cy="409.8" r="5.8"/>
	<text transform="matrix(1 0 0 1 245.86 413.0029)" class="st2 st3">14</text>
	<rect x="243.4" y="435.7" width="16.6" height="16.6"/>
</g>
<g>
	<path class="st5" d="M242.3,356.5l-6.3,10l3.6,9.8l17.4,5l29.3,5.9l4.8-9l15.3-7.3c-1.3-5.6-2.7-10.8-3.4-12.7
		c-2.3-0.9-7.9-3.5-22-10.9l-0.6-0.3l-12.6-18.5c-4.1,5.4-8.8,11.2-8.8,11.2l-22.6,10L242.3,356.5L242.3,356.5z"/>
	<circle class="st1" cx="269.7" cy="361.5" r="5.8"/>
	<text transform="matrix(1 0 0 1 262.9101 365.4114)" class="st2 st3">13</text>
</g>
<g>
	<polygon class="st9" points="215.7,504.5 227.3,538.8 261.5,556.8 308.8,513.8 299.6,484.8 280.5,475.9 252.6,478.6 230,470.5 
		208.1,504.5 	"/>
	<circle class="st1" cx="252.2" cy="511.9" r="5.8"/>
	<text transform="matrix(1 0 0 1 245.38 515.81)" class="st2 st3">24</text>
</g>
<g>
	<path class="st9" d="M169.7,564.6c17.1,16.2,17.1,17.3,17.1,18.7c0,0.7-0.4,5-0.8,9.3l19.8-6.3l19.7-47l-11.2-33h-10.8l-25.6,5.5
		l-21.5,16.8l-23.8,1.3c-20.4,30.2-23.3,31.5-25.4,31c-1.9,0.3-8.6,3.1-15.1,6.1l13.6,17.2l13.4-9.3l24.9-8.4l24.8-2.7L169.7,564.6z
		"/>
	<circle class="st1" cx="190.5" cy="542.6" r="5.8"/>
	<text transform="matrix(1 0 0 1 186.16 545.68)" class="st2 st3">23</text>
	<rect x="138.6" y="540.8" width="16.6" height="16.6"/>
</g>
<g>
	<path class="st9" d="M200.7,658l21.8-33.2l0.2-0.1l27.2-13.2l36.9-16.2L261,558.7l-34-17.9L207.2,588l-21.4,6.8
		c-0.3,2.8-0.5,5.3-0.7,6.8l-0.1,0.7l-18.6,28.5l11.7,19.4l2.1,17.6l17.2,11.5l-1-26.7L200.7,658L200.7,658z"/>
	<circle class="st1" cx="240.9" cy="582" r="5.8"/>
	<text transform="matrix(1 0 0 1 240.3957 581.9872)" class="st2 st3">25</text>
</g>
<g>
	<path class="st9" d="M309.9,517.1l-0.4-1.3l-46.6,42.3l25.9,36.7l69.2,5.7l2.3-15.1l1.7-0.5c2.9-0.9,6.3-2.1,8.2-3
		c-0.4-1.8-0.5-4.9,0-10.2l-10.9,4.5l-0.8-3.2c-7-26.7-6.6-28.3-6.4-29.1c0.3-1.4,3.6-10.7,5.4-15.9c-8.1-1.8-18-3.8-19.3-3.9
		c-1.6,0-15.4-3.5-26.6-6.5L309.9,517.1z"/>
	<circle class="st1" cx="314.3" cy="560.6" r="5.8"/>
	<text transform="matrix(1 0 0 1 309.41 563.24)" class="st2 st3">26</text>
</g>
<g>
	<path class="st9" d="M342.9,666.2l-1.5-1l3-16.8l6.2-17.3l19-16.1l-3.8-4.5l-8.2-7.7v-0.3l-69.3-5.7l-37.7,16.5l-26.9,13.1
		l-21.9,33.3l12.7,16.2l20-8l32.1,4.7l19.5-8.4l14.8-3.3l23.1,24.9l25.6,18.7l23.3-5.3c1.4-7.8,2.7-15.9,3-19.1
		c-3.2-1.1-12-2.5-14.1-2.5C361.1,677.4,358.5,677.4,342.9,666.2L342.9,666.2z"/>
	<circle class="st1" cx="286.8" cy="634.2" r="5.8"/>
	<text transform="matrix(1 0 0 1 280.94 638.35)" class="st2 st3">27</text>
</g>
<g>
	<polygon class="st10" points="320,69.1 338.1,76.2 345.3,79.2 351.9,59 367.9,52.8 380.8,49.1 380.8,37.1 373.2,33.9 364.1,33.9 
		357.3,38.6 345.3,27.4 344.9,27.2 336.7,31 327.4,43.8 312.3,55.7 	"/>
	<circle class="st1" cx="341" cy="52.9" r="5.8"/>
	<text transform="matrix(1 0 0 1 336.49 52.238)" class="st2 st3">28</text>
</g>
<g>
	<path class="st10" d="M357.5,36.2l6-4.2l10.3,0.1l8.9,3.8v14.8l-14.1,4l-15.1,5.9L347.1,80l9.3,3.8l14-2.4l5.8-7l15.2,3.3
		c0.8,0.5,1.5,1,2.1,1.5l5.4-12l8.5-9V42l12.3-8.7l5.8-19.4l9.1-3l15.1-6.8h19.9L456,0h-40.3c0,0-9.4,10.5-13.4,8.2
		S362,19.3,362,19.3l-15,7L357.5,36.2L357.5,36.2z"/>
	<circle class="st1" cx="397.5" cy="26.9" r="5.8"/>
	<text transform="matrix(1 0 0 1 391.16 24.904)" class="st2 st3">29</text>
</g>
<g>
	<path class="st10" d="M318.1,114.9l24.3-4.5l21.7,13l20.9-3.6l12-16.2l1.6-3.2c1.7-5.3,3.4-11.5,3.5-12.8
		c-0.9-0.9-7.3-5.3-11.8-8.4l-13.5-2.8l-5.5,6.6l-15.2,2.7L337.3,78l-18.6-7.4l-8-13.8l-2.1,1.6l-3.8,1.1l-0.5,23.9l13.7,30.2
		C318.1,114.1,318.1,114.5,318.1,114.9z"/>
	<circle class="st1" cx="370.3" cy="100.3" r="5.8"/>
	<text transform="matrix(1 0 0 1 366.49 106.38)" class="st2 st3">30</text>
	<rect x="322.5" y="87.1" width="16.6" height="16.6"/>
</g>
<g>
	<path class="st10" d="M320.7,153l-2.4,14.8c6.1,5.8,15.2,14.3,16,14.9c0.2,0.1,0.8,0.4,8.4,14.3l18.3-8l10.6,4.8l12.9-12.3
		l-12.2-25.8l20.6-15.7l-7.9-18.2l-21.2,3.6l-21.7-13l-23.9,4.5c0.1,8.8,0.2,25.9,0,28.7L320.7,153z"/>
	<circle class="st1" cx="346.9" cy="151.6" r="5.8"/>
	<text transform="matrix(1 0 0 1 342.67 154.66)" class="st2 st3">31</text>
</g>
<g>
	<path class="st10" d="M420.3,150.8l4.7-18.1l12.9-14.6l2.4-0.7l-3.7-9c-7.5-3.2-19-7.8-20.5-8.1c-1.5-0.2-10.5,1.4-16.1,2.5
		l-13.4,18l8.6,19.7l-20.6,15.6l12.1,25.6l-13.3,12.7l0.5,0.2l14.6,0.4c1.1-1.9,2.3-3.8,3.1-4c1.8-0.6,7.6-14,7.6-14l-2.9-9.9
		l12.9-10.5L420.3,150.8L420.3,150.8z"/>
	<circle class="st1" cx="411.3" cy="125.4" r="5.8"/>
	<text transform="matrix(1 0 0 1 406.82 126.68)" class="st2 st3">32</text>
</g>
<g>
	<path class="st11" d="M450.1,19.9c-2.3,1.2-2.9-10.5-2.9-10.5l-8.7,2.2l-11.6,3.8l-5.7,19.1l-12,8.5v15.9l-8.9,9.4L395,80.2
		c5.6,3.9,8.6,6.2,8.9,6.7c0.2,0.4,0.6,1.2-3.4,13.8c3.7-0.7,13.8-2.6,15.8-2.3c2.1,0.3,16.8,6.5,20.6,8.1l6-8.6l14.5-15L474,95
		h18.7l4.3-20.9l24.3-7.4l8.8-34l2-18.1l-11.5,0.6l-25.7,12.9L508,14.6c0,0-2.3-1.2-7.6-1.2s-33.3,2.9-33.3,2.9
		S452.5,18.7,450.1,19.9L450.1,19.9z"/>
	<circle class="st1" cx="474.5" cy="47.6" r="5.8"/>
	<text transform="matrix(1 0 0 1 468.7234 50.1266)" class="st2 st3">33</text>
	<rect x="423.7" y="61.8" width="16.6" height="16.6"/>
</g>
<g>
	<path class="st11" d="M520.7,97l-19.2,12l-8.3-12.1h-19.6l-15.8-11.5l-13.3,13.7l-6.1,8.7l3.7,9l7.5-2.2l24.5,12.3l12.3,18.7
		l-2.9,13.4l9.9,3.5l-3.5,11.1c0,0-7,10.5-9.4,11.7s-14-0.6-14-0.6s-13.4,2.9-14.6,5.3s-5.3,17.5-5.3,17.5l16.4-5.3l3.5,5.9
		l13.4-14.6l18.1-1.8l5.9-13.4L501,162l1.2-13.4l-2.9-10.5l7.6-11.7l15.8-8.2l-0.6-8.2l8.8-7.3L520.7,97L520.7,97z"/>
	<circle class="st1" cx="484.4" cy="112.9" r="5.8"/>
	<text transform="matrix(1 0 0 1 478.3271 113.5057)" class="st2 st3">34</text>
</g>
<g>
	<polygon class="st11" points="587.7,72.2 580.8,35.2 580.9,35 591.1,12.6 583.3,14.6 552.4,13.4 534.3,14.4 532.2,33 523.1,68.2 
		498.9,75.5 494.7,95.7 502,106.4 520.7,94.8 532.4,101.3 535.5,98.8 554.8,83 572.3,89.4 574.2,91.2 	"/>
	<circle class="st1" cx="555.8" cy="58" r="5.8"/>
	<text transform="matrix(1 0 0 1 546.71 64.238)" class="st2 st3">35</text>
</g>
<g>
	<path class="st11" d="M593.5,12l-10.7,23.5l3.6,19.5l52-7.4L689.2,35l2-21h-0.1c-3.1-1.8-27.6-4.1-27.6-4.1l-1.8,12.3l-11.8-4.1
		c0,0-17.4-7-19.1-8.2s-29.2,0-29.2,0L593.5,12L593.5,12z"/>
	<circle class="st1" cx="616.1" cy="27.2" r="5.8"/>
	<text transform="matrix(1 0 0 1 607.83 33.571)" class="st2 st3">36</text>
</g>
<g>
	<path class="st11" d="M689.3,37l-50.6,12.5l-52,7.4l2.9,15.7l-14,19.8l7.6,6.9c0,0-3.7,8.8,0,8.8s15.9-8.2,15.9-8.2l-8.8-11.7
		l12.9-9.3c0,0,31-11.1,33.9-9.9s41.5-0.1,41.5-0.1l17.3,3.9L689.3,37L689.3,37z"/>
	<circle class="st1" cx="670.6" cy="55.3" r="5.8"/>
	<text transform="matrix(1 0 0 1 661.83 59.571)" class="st2 st3">37</text>
</g>
<g>
	<path class="st11" d="M758.8,31.6l-20.5-5.3c0,0-7,1.2-8.8,0s-14-12.3-14-12.3s-16.3,1.3-22.5,0.5l-2,21.2l6.9,37.5l7,1.6l33.9,6.4
		l21-4.1V61.4l11.1-21L758.8,31.6L758.8,31.6z"/>
	<circle class="st1" cx="713.5" cy="36.2" r="5.8"/>
	<text transform="matrix(1 0 0 1 707.0564 41.0998)" class="st2 st3">38</text>
	<rect x="727.5" y="51.3" width="16.6" height="16.6"/>
</g>
<g>
	<path class="st12" d="M628.9,357.1l14.8-17.1v-19.8h32.6l17.8-12.5l5.3-12.3c-0.8-2.2-1.5-4.3-1.7-4.8c-0.4-1.3-9.2-2.6-9.2-2.6
		s-18,3.1-19.3,3.5s-11.4,2.6-11.8,1.3c-0.4-1.3-5.5-3.5-5.5-3.5l-8.3,1.3l-7.2-20.2H628l-5.3,8.8l-4.8-1.8l-10.1,2.6l-10.1-5.7h-11
		l-5.3,4l-6.6,11.4l2.6,9.6l16.7,18l-7.5,4.4l-4,11.4l8.8,21.9l8.3,18l4.4-6.1h9.2l5.3-7.9l8.8-4L628.9,357.1L628.9,357.1z"/>
	<circle class="st1" cx="618.2" cy="309.9" r="5.8"/>
	<text transform="matrix(1 0 0 1 616.13 314.9)" class="st2 st3">39</text>
</g>
<g>
	<path class="st12" d="M703.8,262.2c-2.6,0.9-3.5,8.1-3.5,8.1l3.5,0.2c0,0,9.6-0.4,10.9,0c1.3,0.4,12.7,3.5,12.7,3.5l8.8-3.5
		c0,0,17.5,3.5,19.7,4.8s4,11,4,11v15.3l-11,3.5h-8.8c0,0-10.5,4.4-11.8,5.3s-10.1,0.9-10.1,0.9l-9.2-10.1l-7.5,0.4
		c0,0-0.6-1.6-1.3-3.5l-4.7,10.9l-17.3,12.1l22.7,14.8l37.2,10.7l32.1-20.5l13-28.4l24.3-14.1l9-14.8l-8.9-5l-13.2-7.5l-11.4-4.8
		l-14.9,4.8l-17.1-7.4c0,0-19.3,1.3-21,1.3s-12.7-3.1-15.3-3.9s-18.4-1.3-20.2-0.4c-1.8,0.9-7.5,6.1-7.5,6.1s11.4,3.1,13.6,3.1
		C702.9,255.2,706.4,261.3,703.8,262.2L703.8,262.2z"/>
	<circle class="st1" cx="734.3" cy="322.1" r="5.8"/>
	<text transform="matrix(1 0 0 1 724.98 326.24)" class="st2 st3">40</text>
	<rect x="771.2" y="268.7" width="16.6" height="16.6"/>
</g>
<g>
	<path class="st12" d="M842.8,345.2l-3-9.9v-11.8l-3.5-0.9c0,0-4.4,10.1-5.7,10.1s-2.2-7.9-2.2-7.9l2.2-13.6v-6.1l-4-16.7v-14
		l-8.3-4.6l-0.1,0.1l-9.2,15.2l-24.2,14l-13,28.3L739.5,348l9.7,25.4L842.8,345.2L842.8,345.2z"/>
	<circle class="st1" cx="803.6" cy="327.4" r="5.8"/>
	<text transform="matrix(1 0 0 1 799.7471 329.22)" class="st2 st3">41</text>
</g>
<g>
	<path class="st12" d="M683,405.4l5.6-3.2l12.7,0.5l0.8,1c1.1,1.4,2.5,3.1,3.4,4.6l35.2-4.7l0.2,0.1c2.2,0.9,4.3,1.7,6.3,2.6
		l6.7-14.8l-16.3-43l-37.5-10.9l-23.7-15.5h-30.7v18.6l-15.6,18.1l6.7,9.5v11l6.5,16.5l11.7,6.8l16.9-1.7L683,405.4L683,405.4z"/>
	<circle class="st1" cx="688.2" cy="368.4" r="5.8"/>
	<text transform="matrix(1 0 0 1 681.6 371.09)" class="st2 st3">42</text>
</g>
<g>
	<path class="st13" d="M859.5,377.9c-0.9-1.3-5.7-9.2-7-10.5s0-10.1,0-10.1l-9.2,3.5v-13.6l-93.4,28.2l6.1,16.1l-7,15.5
		c30.3,12.4,37.7,16.4,39.5,17.8l12,1.5l7.3-5.7v-9l15-2.4l0.2,0.1c2,0.8,4.5,1.6,5.2,1.7c1.1-0.5,7.4-4,11.2-6.3l0.2-0.1l25.9-6.6
		v-8.3C865.6,389.8,860.3,379.2,859.5,377.9L859.5,377.9z"/>
	<circle class="st1" cx="794.2" cy="392.6" r="5.8"/>
	<text transform="matrix(1 0 0 1 786.96 395.57)" class="st2 st3">43</text>
</g>
<g>
	<path class="st13" d="M698.4,408.4L690,408l-6.6,3.8l-12.5-5.1l-17.3,1.8l-14.8-8.6l-12.1-10.2l-15.3,7.7l-6.6-8.5l-2,2.7v14.2h9.5
		l10,21.6l-6,16.1c17,7.1,35.4,14.5,38.1,14.9h2.5l3.3-2.3l6.7-8.3l1-5.4l-13.6-3.2l7.6-13.8l18.8,2.9l12.3-0.4l1-6.2l0.4-0.6
		c2.5-3.4,5.3-7.6,6.3-9.4C700.2,410.8,699.3,409.5,698.4,408.4L698.4,408.4z"/>
	<circle class="st1" cx="637" cy="426.3" r="5.8"/>
	<text transform="matrix(1 0 0 1 632.82 429.25)" class="st2 st3">44</text>
</g>
<g>
	<path class="st13" d="M749.7,492.6l17-11.2l-3.8-42.3l0.6-0.3c10.3-5.1,21.3-11.1,23.5-13c-3.9-2.6-30-13.6-46.5-20.3l-34,4.6
		c0,0.1,0.1,0.1,0.1,0.2c0.4,1.3,0.9,2.7-7,13.5l-1.6,9.5l-17.5,0.5l-15.4-2.4l-2,3.7l11.6,2.7l-2.3,12.3l-5.3,6.6l1.7,4.5l9.2,10.1
		l9.2,8.8l4.4,9.6c0,0,13.6,6.6,14.9,6.6s8.8-2.2,8.8-3.5s0.9-4.8,0.9-4.8l-7.5-4l-4.8-4.4l-3.1-7l8.8,3.1l10.5,3.1l9.7,4.8
		l19.3,8.8L749.7,492.6L749.7,492.6z"/>
	<circle class="st1" cx="736.7" cy="431.2" r="5.8"/>
	<text transform="matrix(1 0 0 1 729.2994 435.4867)" class="st2 st3">45</text>
	<rect x="729.3" y="453" width="16.6" height="16.6"/>
</g>
<g>
	<path class="st13" d="M840.3,406.4c-5,2.9-11,6.3-11.6,6.4c-0.3,0.1-0.9,0.2-6.1-1.7l-12.8,2.1v8.3l-8.7,6.8l-12.4-1.6
		c-1.4,1.5-6.3,5-23.7,13.6l3.8,42.1l-16.9,11.1l14.2,5.8l14-3.1l11-3.5c0,0,9.7-6.1,10.5-7.9c0.9-1.8,7.5-5.7,7.5-5.7l11.8-3.5
		l6.6,6.1l7.9-4l6.6-10.5l3.1-14.9l3.5-12.3l6.1-5.3l12.3-4.4l6.6-2.2v-21l-7.4-7.4L840.3,406.4L840.3,406.4z"/>
	<circle class="st1" cx="800.7" cy="453.6" r="5.8"/>
	<text transform="matrix(1 0 0 1 791.9329 458.62)" class="st2 st3">46</text>
</g>
<g>
	<path class="st13" d="M635.9,485.3c-2.2,0-16.7,4-16.7,4l-3.1,18.4l19.7,4.8l36.8,4.4l7.9-15.8l-11-14l-7.5-11.4h-13.8
		C646.4,475.7,635.9,485.3,635.9,485.3z"/>
	<circle class="st1" cx="648.4" cy="496.3" r="5.8"/>
	<text transform="matrix(1 0 0 1 639.64 500.42)" class="st2 st3">47</text>
</g>
<g>
	<line class="st14" x1="240.4" y1="582" x2="314.3" y2="560.6"/>
	<line class="st14" x1="286.8" y1="635.2" x2="314.3" y2="560.6"/>
	<line class="st14" x1="240.4" y1="582" x2="286.8" y2="635.2"/>
	<line class="st14" x1="191.2" y1="542.2" x2="240.4" y2="582"/>
	<line class="st14" x1="252.2" y1="511.9" x2="240.4" y2="582"/>
	<line class="st14" x1="314.3" y1="560.6" x2="252.2" y2="511.9"/>
	<line class="st14" x1="191.2" y1="542.2" x2="252.2" y2="511.9"/>
	<line class="st14" x1="251.2" y1="409.8" x2="252.2" y2="511.9"/>
	<line class="st14" x1="194" y1="417.7" x2="251.2" y2="409.8"/>
	<line class="st14" x1="269.7" y1="361.5" x2="251.2" y2="409.8"/>
	<line class="st14" x1="194" y1="417.7" x2="269.7" y2="361.5"/>
	<line class="st14" x1="284.2" y1="310.7" x2="269.7" y2="361.5"/>
	<line class="st14" x1="338.7" y1="350.4" x2="269.7" y2="361.5"/>
	<line class="st14" x1="314.3" y1="560.6" x2="438.4" y2="405.5"/>
	<line class="st14" x1="338.7" y1="350.4" x2="438.4" y2="405.5"/>
	<line class="st14" x1="421.2" y1="358.7" x2="438.4" y2="405.5"/>
	<line class="st14" x1="317.9" y1="287.9" x2="284.2" y2="310.7"/>
	<line class="st14" x1="338.7" y1="350.4" x2="317.9" y2="287.9"/>
	<line class="st14" x1="284.2" y1="310.7" x2="338.7" y2="350.4"/>
	<line class="st14" x1="76.5" y1="294.3" x2="194" y2="417.7"/>
	<line class="st14" x1="338.7" y1="350.4" x2="421.2" y2="358.7"/>
	<line class="st14" x1="473.2" y1="337.7" x2="421.2" y2="358.7"/>
	<line class="st14" x1="438.4" y1="405.5" x2="473.2" y2="337.7"/>
	<line class="st14" x1="414.3" y1="292" x2="421.2" y2="358.7"/>
	<line class="st14" x1="352.6" y1="254.6" x2="414.3" y2="292"/>
	<line class="st14" x1="473.2" y1="337.7" x2="414.3" y2="292"/>
	<line class="st14" x1="421.1" y1="357.8" x2="352.6" y2="254.6"/>
	<line class="st14" x1="338.7" y1="350.4" x2="352.6" y2="254.6"/>
	<line class="st14" x1="317.9" y1="287.9" x2="352.6" y2="254.6"/>
	<line class="st14" x1="414.3" y1="292" x2="484.1" y2="113.5"/>
	<line class="st14" x1="368.2" y1="212.6" x2="352.6" y2="254.6"/>
	<line class="st14" x1="414.3" y1="292" x2="368.2" y2="212.6"/>
	<line class="st14" x1="158.8" y1="268.2" x2="76.5" y2="294.3"/>
	<line class="st14" x1="123.2" y1="174.5" x2="158.8" y2="268.2"/>
	<line class="st14" x1="56.9" y1="196.9" x2="158.8" y2="268.2"/>
	<line class="st14" x1="123.2" y1="174.5" x2="56.9" y2="196.9"/>
	<line class="st14" x1="54.4" y1="112.2" x2="123.2" y2="174.5"/>
	<line class="st14" x1="56.9" y1="196.9" x2="54.4" y2="112.2"/>
	<line class="st14" x1="77.1" y1="55" x2="54.4" y2="112.2"/>
	<line class="st14" x1="153.9" y1="50.9" x2="54.4" y2="112.2"/>
	<line class="st14" x1="77.1" y1="55" x2="153.9" y2="50.9"/>
	<line class="st14" x1="195.8" y1="147.8" x2="54.4" y2="112.2"/>
	<line class="st14" x1="123.2" y1="174.5" x2="195.8" y2="147.8"/>
	<line class="st14" x1="194" y1="205.5" x2="123.2" y2="174.5"/>
	<line class="st14" x1="195.8" y1="147.8" x2="194" y2="205.5"/>
	<line class="st14" x1="314.7" y1="198" x2="195.8" y2="147.8"/>
	<line class="st14" x1="260.6" y1="239.9" x2="195.8" y2="147.8"/>
	<line class="st14" x1="346.8" y1="151.6" x2="195.8" y2="147.8"/>
	<line class="st14" x1="370.3" y1="100.3" x2="195.8" y2="147.8"/>
	<line class="st14" x1="158.8" y1="268.2" x2="194" y2="205.5"/>
	<line class="st14" x1="260.6" y1="239.9" x2="194" y2="205.5"/>
	<line class="st14" x1="314.7" y1="198" x2="260.6" y2="239.9"/>
	<line class="st14" x1="346.8" y1="151.6" x2="314.7" y2="198"/>
	<line class="st14" x1="370.3" y1="100.3" x2="346.8" y2="151.6"/>
	<line class="st14" x1="368.2" y1="212.6" x2="346.8" y2="151.6"/>
	<line class="st14" x1="314.7" y1="198" x2="368.2" y2="212.6"/>
	<line class="st14" x1="352.6" y1="254.6" x2="314.7" y2="198"/>
	<line class="st14" x1="317.9" y1="287.9" x2="314.7" y2="198"/>
	<line class="st14" x1="260.6" y1="239.9" x2="317.9" y2="287.9"/>
	<line class="st14" x1="284.2" y1="310.7" x2="260.6" y2="239.9"/>
	<line class="st14" x1="414.3" y1="123.4" x2="346.8" y2="151.6"/>
	<line class="st14" x1="342.7" y1="47.6" x2="370.3" y2="100.3"/>
	<line class="st14" x1="397.5" y1="24.9" x2="370.3" y2="100.3"/>
	<line class="st14" x1="342.7" y1="47.6" x2="397.5" y2="24.9"/>
	<line class="st14" x1="414.3" y1="123.4" x2="370.3" y2="100.3"/>
	<line class="st14" x1="648.4" y1="496.3" x2="314.3" y2="560.6"/>
	<line class="st14" x1="474.5" y1="47.1" x2="414.3" y2="123.4"/>
	<line class="st14" x1="397.5" y1="24.9" x2="474.5" y2="47.1"/>
	<line class="st14" x1="484.1" y1="113.5" x2="474.5" y2="47.1"/>
	<line class="st14" x1="553.8" y1="58" x2="474.5" y2="47.1"/>
	<line class="st14" x1="616.1" y1="27.2" x2="553.8" y2="58"/>
	<line class="st14" x1="670.5" y1="55" x2="553.8" y2="58"/>
	<line class="st14" x1="714.1" y1="36.2" x2="670.5" y2="55"/>
	<line class="st14" x1="616.1" y1="27.2" x2="714.1" y2="36.2"/>
	<line class="st14" x1="670.5" y1="55" x2="734.3" y2="322.1"/>
	<line class="st14" x1="618.2" y1="309.9" x2="734.3" y2="322.1"/>
	<line class="st14" x1="473.2" y1="337.7" x2="618.2" y2="309.9"/>
	<line class="st14" x1="687.5" y1="368.2" x2="618.2" y2="309.9"/>
	<line class="st14" x1="734.3" y1="322.1" x2="687.5" y2="368.2"/>
	<line class="st14" x1="804.5" y1="327.2" x2="734.3" y2="322.1"/>
	<line class="st14" x1="687.5" y1="368.2" x2="804.5" y2="327.2"/>
	<line class="st14" x1="794.2" y1="392.6" x2="687.5" y2="368.2"/>
	<line class="st14" x1="804.5" y1="327.2" x2="794.2" y2="392.6"/>
	<line class="st14" x1="800.7" y1="453.6" x2="794.2" y2="392.6"/>
	<line class="st14" x1="736.7" y1="431.7" x2="800.7" y2="453.6"/>
	<line class="st14" x1="794.2" y1="392.6" x2="736.7" y2="431.7"/>
	<line class="st14" x1="687.5" y1="368.2" x2="736.7" y2="431.7"/>
	<line class="st14" x1="637" y1="426.3" x2="687.5" y2="368.2"/>
	<line class="st14" x1="648.4" y1="496.3" x2="736.7" y2="431.7"/>
	<line class="st14" x1="637" y1="426.3" x2="648.4" y2="496.3"/>
	<line class="st14" x1="484.1" y1="113.5" x2="555.8" y2="58"/>
	<line class="st14" x1="637" y1="426.3" x2="736.7" y2="431.7"/>
	<line class="st14" x1="251.2" y1="409.8" x2="190.5" y2="542.6"/>
	<line class="st14" x1="484.4" y1="112.9" x2="414.3" y2="123.4"/>
	<line class="st14" x1="474.5" y1="47.1" x2="370.3" y2="100.3"/>
	<line class="st14" x1="616.1" y1="27.2" x2="670.5" y2="55"/>
	<line class="st14" x1="368.2" y1="212.6" x2="411.2" y2="125.9"/>
</g>
<g>
	<line class="st15" x1="473.2" y1="337.7" x2="620.3" y2="309.9"/>
	<line class="st15" x1="736.7" y1="431.7" x2="650.1" y2="495.2"/>
	<line class="st15" x1="637.2" y1="426.3" x2="648.4" y2="497"/>
	<polyline class="st15" points="76.5,294.3 96.1,333.5 105.7,349.1 133.3,362.2 156.9,376 194,417.6 	"/>
	<polyline class="st15" points="414.3,292 435.5,239.1 440.2,220.1 438.2,193.2 443.6,169.2 461.7,148.4 483.7,112.9 	"/>
	<polyline class="st15" points="670.5,54.3 673.4,134.3 662.3,229.1 669.4,261.9 692.9,276.5 715.9,288.2 725.8,304.1 731.5,321.8 	
		"/>
	<line class="st15" x1="314.5" y1="560.6" x2="438.4" y2="405.4"/>
	<line class="st15" x1="648.4" y1="499.4" x2="316.5" y2="563.2"/>
</g>
</svg>
