<?xml version="1.0" encoding="UTF-8"?>
<svg enable-background="new 0 0 1499.7 1500.2" version="1.1" viewBox="0 0 1499.7 1500.2" xml:space="preserve" xmlns="http://www.w3.org/2000/svg">
<style type="text/css">
	.st0{fill:#4FBF8C;}
	.st1{fill:#35495E;}
</style>
	<path class="st0" d="m1125 749.3c0.8 2 1.6 4 2.5 5.9 123.2 246.4 246.4 492.9 369.6 739.3 0.8 1.6 1.5 3.2 2.6 5.6h-5.3c-146.5 0-293 0-439.5 0.1-4 0-5.8-1.4-7.5-4.8-48.4-97-96.9-193.9-145.3-290.8-33-66-66.2-132.1-99.2-198.1-16.7-33.3-33.3-66.6-50-99.9-0.8-1.6-1.6-3.1-3-5.6-1.4 2.7-2.4 4.3-3.2 6-47.9 95.8-95.8 191.6-143.8 287.4-50.2 100.3-100.5 200.6-150.6 301-1.6 3.1-3 4.8-7 4.8-147-0.1-294-0.1-441-0.1h-4.3c1-2.2 1.8-3.9 2.7-5.6 123.2-246.4 246.4-492.9 369.6-739.3 1-1.9 1.7-3.9 2.5-5.9 1-1.7 2.1-3.3 3-5.1 73-145.9 146-291.9 219-437.8 0.9-1.9 2.2-3.6 3.4-5.4 6.6 12.9 13.2 25.7 19.7 38.6l126.9 253.8c0.8 1.6 1.7 3.2 3 5.8 1.4-2.5 2.4-4.1 3.2-5.7 48-95.9 95.9-191.8 143.9-287.8 0.8-1.6 1.8-3.1 2.7-4.7 1.1 1.8 2.4 3.5 3.4 5.4 73 145.9 146 291.9 219 437.8 0.8 1.8 2 3.4 3 5.1z"/>
	<path class="st1" d="m600.2 301c-1.1 1.8-2.4 3.5-3.4 5.4-73 145.9-146 291.9-219 437.8-0.9 1.8-2 3.4-3 5.1-11.5-22.8-23.1-45.7-34.6-68.5-112.6-225.2-225.2-450.4-337.7-675.6-0.8-1.5-1.5-2.9-2.5-5.1h4.8c146.8 0 293.6 0 440.4-0.1 3.1 0 5.1 0.5 6.6 3.6 49.2 98.7 98.5 197.3 147.8 295.9 0.3 0.5 0.4 1 0.6 1.5z"/>
	<path class="st1" d="m1125 749.3c-1-1.7-2.1-3.3-3-5.1-73-145.9-146-291.9-219-437.8-0.9-1.9-2.2-3.6-3.4-5.4 20.8-41.7 41.5-83.3 62.3-125 28.6-57.3 57.3-114.5 85.8-171.8 1.4-2.9 2.8-4.1 6.3-4.1 147.3 0.1 294.6 0.1 441.9 0.1h3.7c-0.8 1.8-1.4 3.3-2.1 4.7-123.5 246.9-246.9 493.8-370.4 740.7-0.6 1.2-1.4 2.4-2.1 3.7z"/>
</svg>
