<?xml version="1.0" encoding="utf-8"?>
<!-- Generator: Adobe Illustrator 23.0.2, SVG Export Plug-In . SVG Version: 6.00 Build 0)  -->
<svg version="1.1" id="labels" xmlns="http://www.w3.org/2000/svg" xmlns:xlink="http://www.w3.org/1999/xlink" x="0px" y="0px"
	 viewBox="0 0 873.48 704.21" style="enable-background:new 0 0 873.48 704.21;" xml:space="preserve">
<style type="text/css">
	.st0{fill:#ABD699;}
	.st1{fill:#76C377;}
	.st2{font-family:'MyriadPro-Regular';}
	.st3{font-size:12px;}
	.st4{fill:#A0D7ED;}
	.st5{font-size:13.3287px;}
	.st6{fill:#BBA9D2;}
	.st7{fill:#EBEFAB;}
	.st8{fill:#F8B4B2;}
</style>
<g>
	<polygon id="_x30_" class="st0" points="49.96,73.71 68.06,73.71 77.72,79.55 82.38,91.01 94.64,96.83 113.11,88.31 114.74,68.97 
		103.95,53.33 124.07,39.55 128.31,26.73 127.98,25.18 119.85,25.72 110.5,21.04 98.22,29.23 90.04,23.38 74.25,29.23 54.96,29.23 
		39.18,28.64 29.24,41.5 29.24,60.79 49.12,68.39 	"/>
	<circle id="_x30__1_" class="st1" cx="77.09" cy="54.66" r="5.83"/>
	<text transform="matrix(1 0 0 1 72.9365 58.46)" class="st2 st3">0</text>
</g>
<g>
	<path id="_x31_" class="st0" d="M137.84,72.65l8.97,14.09c3.04,0.88,24.98,7.27,26.14,7.56c1,0.25,17.45,3.58,26.01,5.3l0.29,0.05
		l7.12-13.14l24.55-6.43l14.61,1.75c0,0-0.58-11.11-2.34-11.11c-1.75,0-31.57-3.51-31.57-3.51s-7.01-5.85-7.01-7.6
		c0-1.75,4.68-16.37,4.68-16.37s6.43-5.26,1.75-7.6s-7.01-6.43-12.28-7.01s-15.49-4.09-17.98-1.75c-2.48,2.34-5.41-4.68-7.75-5.26
		c-2.34-0.58-13.44-0.58-16.95,2.92s-18.71,0-18.71,0l-7.48,0.5l0.39,1.79l-4.6,13.93l-19.07,13.06l9.68,14.03L137.84,72.65z"/>
	<circle id="_x31__1_" class="st1" cx="171.83" cy="60.5" r="5.83"/>
	<text transform="matrix(1 0 0 1 168.0477 64.2379)" class="st2 st3">1</text>
</g>
<g>
	<path id="_x32_" class="st0" d="M34.63,147.68l17.67-3.44l20.03-9.39l28.23-15.86c21.41-14.82,23.09-14.73,24.71-13.95
		c1.87,0.55,15.03,2.82,23.94,4.28l30.27,4.56l24.04,14.98l6.58-1.82c-3.26-5.07-7.48-11.72-8.99-12.48
		c-1.95-0.97-2.27-10.05-2.33-13.05l-0.18-0.03c-1.04-0.21-24.83-5.01-26.12-5.33c-1.28-0.32-25.53-7.38-26.56-7.68l-0.35-0.1
		l-8.93-14.03l-20.06-4.47l-1.66,19.7l-20.3,9.37l-13.74-6.53l-4.71-11.55l-8.66-5.24H50.26l0.61,3.87c0,0-9.94,3.51-11.69,3.51
		c-1.75,0-15.78,8.77-15.78,8.77s0,18.71,0,20.46c0,1.75,0,14.61,0,14.61l10.52,17.54L34.63,147.68z"/>
	<circle id="_x32__1_" class="st1" cx="60.16" cy="106.38" r="5.83"/>
	<text transform="matrix(1 0 0 1 56.8714 110.6639)" class="st2 st3">2</text>
</g>
<g>
	<path id="_x33_" class="st0" d="M42.1,216.87l12.28,7.6l-13.44,7.01l26.89,8.18l14.84,7.42l13.06-14.73l1.64-25.21l-19.42-4.96
		l-7.1-31.24l8.65-10.14l-7.4-11.35l2.13-9.13l-20.48,9.51l-17.91,3.48l3.35,15.63l4.09,22.21l-11.11,14.03
		c0,0-15.78-2.92-15.78-1.17C16.38,205.76,42.1,216.87,42.1,216.87z"/>
	<circle id="_x33__1_" class="st1" cx="56.87" cy="196.89" r="5.83"/>
	<text transform="matrix(1 0 0 1 56.4922 198.0157)" class="st2 st3">3</text>
</g>
<g>
	<path id="_x34_" class="st0" d="M82.77,197.48l20.64,5.27l-2.08,31.94l-3.51,3.96l14.44,0.06l8.71,4.02l23.94-2.44
		c2.28-13.18,3.16-13.18,4.02-13.18c0.7-0.16,6.25-3,11.35-5.74v-32.13l-11.48-23.4l5.91-23.79l20.89-9.89l6.93-9.62l-5.08-3.17
		l-29.13-4.39c-16.52-2.72-22.16-3.84-24.21-4.35c-2.67,1.24-12.14,7.43-20.38,13.14l-0.23,0.14L81,136.57l-2.75,11.79l8.41,12.9
		l-9.57,11.22L82.77,197.48z"/>
	<circle id="_x34__1_" class="st1" cx="123.16" cy="174.51" r="5.83"/>
	<text transform="matrix(1 0 0 1 119.6033 177.3107)" class="st2 st3">4</text>
</g>
<g>
	<path id="_x35_" class="st0" d="M176.86,133.7l-20.52,9.71l-5.52,22.23l5.18,10.55l38.68-3.65l21.28,13.34l29.58-11.45l25.79,7.86
		l18.06-31.69l0.45-0.07c11.46-1.91,24.25-4.36,26.42-5.33c0.17-2.66,0.06-19.73-0.05-31.22l-13.75-30.05l0.48-23.76l-0.01-0.01
		l-15.89,4.72l-14.61,10.52l4.09,11.11l16.95,5.26l-8.77,18.12c0,0,0.58,5.26,2.34,7.6c1.75,2.34,14.61,5.26,14.61,5.26
		s-8.18,9.94-10.52,9.94c-2.34,0-32.15-0.58-32.15-0.58v9.94l-11.11,5.26V159l-14.61,0.58c0,0-5.85-12.86-5.85-14.61
		s-2.34-11.69-2.34-11.69s-9.35,1.17-11.11-0.58c-0.12-0.12-0.27-0.31-0.45-0.54l-1.12,0.22l-9.77,2.72l-18.47-11.51L176.86,133.7z"
		/>
	<circle id="_x35__1_" class="st1" cx="189.18" cy="151.36" r="5.83"/>
	<text transform="matrix(1 0 0 1 191.2177 154.6612)" class="st2 st3">5</text>
</g>
<g>
	<path id="_x36_" class="st0" d="M133.88,330.86l11.79-3.72l-5.73-29.01l-11.26-24.75h-28.25l-5.87-4.56
		c-0.64,0.86-1.2,1.53-1.61,1.84c-2.34,1.75-25.72,3.51-28.06,4.68c-2.34,1.17-19.29,5.26-21.04,5.26
		c-1.75,0-14.03-8.18-15.78-11.11s-6.43-11.69-11.69-11.69S0.6,272.4,0.02,275.32c-0.58,2.92,14.61,16.95,14.61,16.95l19.29,1.17
		l21.04,3.51L72.5,319.6l33.32-6.87L133.88,330.86z"/>
	<circle id="_x36__1_" class="st1" cx="99.83" cy="296.06" r="5.83"/>
	<text transform="matrix(1 0 0 1 90.7142 298.4601)" class="st2 st3">6</text>
</g>
<g>
	<path id="_x37_" class="st0" d="M101.09,271.46h28.83l11.88,26.19l5.71,28.91l22.02-6.95l19.87-24.4l17.73-7.09l-2.51-9.38
		c-3,0.58-12.65,2.4-15.44,2.4c-3.49,0-6.09-12.51-7.34-19.98l-0.04-0.24l4.14-11.76l-1.04-8.14l-12.27-8.39l-11.53-9.53
		c-6.32,3.4-10.24,5.35-11.69,5.82c-0.61,1.22-1.85,7.12-2.75,12.42l-0.12,0.72l-25.91,2.64l-8.99-4.16H96.14l-8.07,9.1l14.24,6.38
		c0,0-3.72,6.82-6.65,11.2L101.09,271.46z"/>
	<circle id="_x37__1_" class="st1" cx="158.83" cy="268.24" r="5.83"/>
	<text transform="matrix(1 0 0 1 155.1585 273.7248)" class="st2 st3">7</text>
</g>
<g>
	<path id="_x38_" class="st0" d="M240.14,280.15v-29.84l-17.94-40.58l5.95-26.52l-12.4,4.8l-21.54-13.5l-37.31,3.52l5.29,10.78v32.7
		l11.61,9.6l12.91,8.82l1.2,9.44l-4.12,11.72c1.59,9.44,4.07,17.72,5.43,18.13c3.04,0,15.79-2.52,15.92-2.54l0.88-0.17l2.91,10.89
		l6.78-2.71L240.14,280.15z"/>
	<circle id="_x38__1_" class="st1" cx="207.14" cy="225.9" r="5.83"/>
	<text transform="matrix(1 0 0 1 201.8252 229.1264)" class="st2 st3">8</text>
</g>
<g>
	<polygon id="_x39_" class="st0" points="292.07,187.77 272.28,184.48 272.23,184.57 245.61,176.45 230.3,182.38 224.21,209.54 
		242.06,250.11 242.06,279.8 247.28,278.83 260.82,287.86 295.4,236.22 	"/>
	<circle id="_x39__1_" class="st1" cx="263.83" cy="214.9" r="5.83"/>
	<text transform="matrix(1 0 0 1 259.8051 223.1063)" class="st2 st3">9</text>
</g>
<g>
	<path id="_x31_0" class="st0" d="M297.29,235.77l23.8,7.98l-5.14-8.72l18.84-9.99l-2.06-19.5l9.92-4.65
		c-3.5-6.4-8.8-15.91-9.53-16.75c-1.5-1.18-9.67-8.88-16.5-15.35l-0.37-0.35l2.46-15.28l-2.13-6.13c-2.38,0.9-8.72,2.42-26,5.31
		l-17.31,30.36l20.59,3.41L297.29,235.77z"/>
	<circle id="_x31_0_1_" class="st1" cx="315.38" cy="209.39" r="5.83"/>
	<text transform="matrix(1 0 0 1 307.4554 211.7837)" class="st2 st3">10</text>
</g>
<g>
	<path id="_x31_1" class="st4" d="M273.59,319.6c0,0.47-0.91,1.95-2.27,3.9l12.97,18.98c4.71,2.45,9.66,4.97,13.61,6.93l11.5-9.04
		l-8.35-7.96l-2.24-9.4l2.11-15.18l-13.37-24.66l-14.97-9.45l-10.18,15.2l9.41,6.28C271.83,295.2,273.59,317.7,273.59,319.6z"/>
	<circle id="_x31_1_1_" class="st1" cx="284.16" cy="310.68" r="5.83"/>
	<text transform="matrix(0.9003 0 0 1 277.8252 313.5723)" class="st2 st5">11</text>
</g>
<g>
	<path id="_x31_2" class="st4" d="M333.34,325.85c4.56,0.49,8.28,0.93,11.32,1.32l-5.8-21.18l2.95-19.81l-14.36-17.32l-5.05-22.66
		l-25.64-8.59l-23.11,34.51l15.35,9.69l13.9,25.66l-2.15,15.45l2.02,8.5l8.21,7.82l22.02-13.42L333.34,325.85z"/>
	<circle id="_x31_2_1_" class="st1" cx="323.66" cy="287.39" r="5.83"/>
	<text transform="matrix(1 0 0 1 314.27 292.0157)" class="st2 st3">12</text>
</g>
<g>
	<path id="_x31_3" class="st4" d="M358.49,329.83c0.51,0.58,6.46,5.34,10.8,8.81c1.02,0.82,1.92,1.53,2.72,2.18l16.34-1.34
		l-7.65-20.3l8.39-31.04l2.48-34.91l-20.36-12.09l-25.51-19.71l-27.08,14.37l5.24,8.89l0.17,0.06l5.18,23.26l14.61,17.62
		l-3.01,20.25l6.02,21.59C357.74,328.9,358.28,329.57,358.49,329.83z"/>
	<circle id="_x31_3_1_" class="st1" cx="366.49" cy="278.46" r="5.83"/>
	<text transform="matrix(1 0 0 1 358.27 281.12)" class="st2 st3">13</text>
</g>
<g>
	<path id="_x31_4" class="st4" d="M336.63,224.07l9.28-4.92l26.39,20.4l20.06,11.91l8.96-10.95c-0.45-0.62-0.77-1.13-0.87-1.43
		c-0.58-1.75-2.92-16.37-2.92-16.37l4.68-7.6l8.77-4.68l-13.44-3.51l-8.18,3.51l-2.92-11.11c0,0,0.46-0.99,1.12-2.28l-14.2-0.39
		l-12.4-5.58l-17.34,7.5c0.41,0.74,0.81,1.47,1.25,2.28l0.49,0.89l-10.53,4.94L336.63,224.07z"/>
	<circle id="_x31_4_1_" class="st1" cx="374.18" cy="219.42" r="5.83"/>
	<text transform="matrix(1 0 0 1 369.381 223.1063)" class="st2 st3">14</text>
</g>
<g>
	<path id="_x31_5" class="st4" d="M436.35,309.42v-15.77l9.48-2.13v-9.26l-10.98-4.83l6.16-13.04l0.39-0.67l-4.72-10.62
		c0,0-5.85-8.26-7.6-7.64c-1.75,0.62-6.43-6.39-8.18-6.39s-12.28,9.94-12.28,9.94s-3.67-3.95-6.1-6.95l-9.01,11.01l-2.54,35.38
		l-8.26,30.63l7.41,19.67l9.19-7.41l14.14,1.64l22.29-0.01l-7.13-13.97L436.35,309.42z"/>
	<circle id="_x31_5_1_" class="st1" cx="414.27" cy="292.02" r="5.83"/>
	<text transform="matrix(1 0 0 1 408.1283 296.0575)" class="st2 st3">15</text>
</g>
<g>
	<path id="_x31_6" class="st4" d="M386.95,414.38l1.67-5.68l0.91,0.26c0.61,0.17,14.95,4.27,16.23,4.7
		c0.67,0.05,4.44-1.34,7.89-2.84l-8.48-9.29l6.97-14.78l-20.49-14.94c-4.01-6.67-14.51-24.1-14.89-24.67
		c-0.36-0.37-4.77-3.9-8.66-7.01c-6.78-5.42-10.23-8.2-10.99-8.99c-1.47-0.67-13.14-2.21-23.64-3.35l-22.04,13.43l-11.61,9.13
		c2.68,1.31,4.69,2.26,5.48,2.55c1.9,0.06,3.1,0.97,6.47,15.41l7.42-3.55l20.46,7.65c0,0,10.52,3.45,13.44,6.96
		c2.92,3.51,19.29,18.71,19.29,18.71l14.03,15.78C386.4,413.86,386.61,414.06,386.95,414.38z"/>
	<circle id="_x31_6_1_" class="st1" cx="347.59" cy="354.95" r="5.83"/>
	<text transform="matrix(1 0 0 1 344.6606 362.4601)" class="st2 st3">16</text>
</g>
<g>
	<path id="_x31_7" class="st4" d="M378.35,346.09c0.42,0.63,12.95,21.44,14.84,24.58l20.43,14.8l24.71-2.35l16.3-13.1
		c2.6-3.4,5.29-7.64,5.2-8.61c-0.64-1.41-4.61-10.87-5.29-12.51l-17.55-14.01h-23.63l-13.45-1.56l-9.82,7.92l-15.89,1.3
		C377.41,345.16,378.18,345.83,378.35,346.09z"/>
	<circle id="_x31_7_1_" class="st1" cx="421.16" cy="358.74" r="5.83"/>
	<text transform="matrix(1 0 0 1 414.2715 362.4601)" class="st2 st3">17</text>
</g>
<g>
	<path id="_x31_8" class="st4" d="M518.51,319.6l-7.01,3.65l-12.28-7.01h14.03l-1.75-11.11l-18.12,4.68l-7.01-4.68l-11.69-5.85
		l-0.58-9.35l-20.46-7.01c0,0,18.12-5.26,16.95-9.94c-1.17-4.68-12.28-9.94-13.74-9.94c-1.46,0-13.15,5.85-13.15,5.85l-1.31-2.94
		l-4.96,10.52l10.32,4.54v12.04l-9.48,2.13v14.91l-7.38,9.15l7.19,14.07l18.03,14.39l0.1,0.23c0.05,0.11,4.69,11.2,5.4,12.77
		c0.66,1.46-1.58,5.17-4.06,8.6l21.26-3.91l15.28,4.34c0.49-1.25,2.15-6.37-2.45-7.91c-5.26-1.75-5.26-1.75-5.26-1.75l5.26-9.94
		l1.75-7.01l9.94-2.92c0,0,13.44-8.77,15.2-8.77c1.75,0,8.77-11.98,8.77-11.84C527.28,319.75,518.51,319.6,518.51,319.6z"/>
	<circle id="_x31_8_1_" class="st1" cx="470.71" cy="324.55" r="5.83"/>
	<text transform="matrix(1 0 0 1 463.6819 328.4312)" class="st2 st3">18</text>
</g>
<g>
	<path id="_x31_9" class="st4" d="M478.7,367.37l-22.98,4.22l-16.65,13.39l-25.09,2.38l-6.52,13.84l9.41,10.3l-1.21,0.54
		c-4.04,1.82-9.14,3.89-10.5,3.44c-1.06-0.35-11.98-3.48-15.24-4.41l-1.42,4.82c3.78,3.7,11.35,11.27,11.35,12.58
		c0,1.75,18.71,5.26,18.71,5.26l7.6-5.26l17.54,5.26l10.52-9.94c0,0,2.92-12.28,5.26-12.86c2.34-0.58,23.38-9.35,23.38-9.35
		l15.78-12.86l-4.22-16.89L478.7,367.37z"/>
	<circle id="_x31_9_1_" class="st1" cx="438.44" cy="405.68" r="5.83"/>
	<text transform="matrix(1 0 0 1 434.1587 406.4095)" class="st2 st3">19</text>
</g>
<g>
	<path id="_x32_0" class="st4" d="M204.45,459.1l20.83-33.47l-14.42-25.92l18.58-26.38l10.46-16.62l-5.4-6.28l-5.93,2.62l-22.8-8.77
		c0,0-14.03,9.35-8.77,9.35c5.26,0,9.94,6.43,9.94,6.43l12.28,4.09l-16.37,11.11l-18.12,14.03l-3.95,7.01c0,0-14.18,2.92-18.85,4.09
		c-4.68,1.17-27.47,8.77-29.23,9.35c-1.75,0.58-19.29,5.85-21.04,6.43c-1.75,0.58-23.97,12.28-23.97,12.28s7.01,15.78,2.92,15.78
		c3.17,0,25.14,0,25.14,0l39.16-10.52l15.2-11.11l10.67,11.11v22.21l-10.67,7.6l-15.78,8.77l-1.75,18.71h21.04l15.33-1.5
		L204.45,459.1z"/>
	<circle id="_x32_0_1_" class="st1" cx="194.05" cy="417.66" r="5.83"/>
	<text transform="matrix(0.9998 -0.0216 0.0216 0.9998 191.3471 421.7012)" class="st2 st3">20</text>
</g>
<g>
	<path id="_x32_1" class="st4" d="M193.7,502.59l10.16-2.17l23.81-36.92l25.62,9.25l28.26-2.74l8.98,4.22
		c-0.66-4.27-1.26-7.36-1.75-8.34c-1.17-2.34-12.28-23.97-9.94-28.64s0-36.24,0-36.24l6.48-12.04l-28.76-5.83l-18.44-5.27l-3.4-9.32
		l-3.68,5.85l-17.92,25.43l14.38,25.85l-21.39,34.35l-14.9,29.27l6.38-0.62L193.7,502.59z"/>
	<circle id="_x32_1_1_" class="st1" cx="250.71" cy="424.46" r="5.83"/>
	<text transform="matrix(1 0 0 1 245.381 427.6621)" class="st2 st3">21</text>
</g>
<g>
	<path id="_x32_2" class="st4" d="M242.29,356.54l-6.27,9.96l3.58,9.8l17.43,4.98l29.26,5.93l4.84-9l15.3-7.33
		c-1.33-5.65-2.68-10.82-3.41-12.72c-2.34-0.92-7.85-3.53-22.02-10.9l-0.64-0.33l-12.63-18.49c-4.06,5.38-8.75,11.19-8.75,11.19
		l-22.63,10.01L242.29,356.54z"/>
	<circle id="_x32_2_1_" class="st1" cx="269.17" cy="364.33" r="5.83"/>
	<text transform="matrix(1 0 0 1 262.4191 368.2374)" class="st2 st3">22</text>
</g>
<g>
	<polygon id="_x32_4" class="st6" points="215.69,504.46 227.29,538.75 261.47,556.79 308.84,513.81 299.56,484.82 280.54,475.89 
		252.55,478.6 230.02,470.47 208.1,504.46 	"/>
	<circle id="_x32_4_1_" class="st1" cx="252.16" cy="511.9" r="5.83"/>
	<text transform="matrix(1 0 0 1 245.3808 515.8115)" class="st2 st3">24</text>
</g>
<g>
	<path id="_x32_3" class="st6" d="M169.68,564.6c17.09,16.19,17.09,17.3,17.09,18.7c0,0.73-0.4,5.01-0.83,9.35l19.82-6.29
		l19.71-46.98l-11.17-33.01h-10.76l-25.65,5.47l-21.5,16.77l-23.76,1.25c-20.45,30.19-23.34,31.46-25.45,30.96
		c-1.88,0.3-8.63,3.12-15.08,6.09l13.55,17.18l13.45-9.34l24.86-8.36l24.76-2.7L169.68,564.6z"/>
	<circle id="_x32_3_1_" class="st1" cx="190.54" cy="542.58" r="5.83"/>
	<text transform="matrix(1 0 0 1 186.1585 545.6824)" class="st2 st3">23</text>
</g>
<g>
	<path id="_x32_5" class="st6" d="M200.7,657.95l21.84-33.21l0.24-0.11l27.16-13.21l36.88-16.16l-25.85-36.56l-33.99-17.94
		l-19.79,47.16l-21.45,6.81c-0.28,2.78-0.54,5.35-0.68,6.76l-0.07,0.69l-18.57,28.47l11.74,19.44l2.05,17.62l17.23,11.49
		l-0.97-26.65L200.7,657.95z"/>
	<circle id="_x32_5_1_" class="st1" cx="234.16" cy="584.07" r="5.83"/>
	<text transform="matrix(1 0 0 1 233.714 584.127)" class="st2 st3">25</text>
</g>
<g>
	<path id="_x32_6" class="st6" d="M309.89,517.09l-0.41-1.28l-46.59,42.28l25.92,36.65l69.18,5.7l2.29-15.09l1.72-0.53
		c2.9-0.9,6.31-2.14,8.18-3.02c-0.36-1.84-0.49-4.9-0.04-10.18l-10.94,4.53l-0.84-3.19c-7-26.7-6.6-28.34-6.4-29.12
		c0.34-1.38,3.57-10.69,5.4-15.93c-8.09-1.76-17.98-3.83-19.31-3.93h0c-1.64,0-15.39-3.53-26.63-6.48L309.89,517.09z"/>
	<circle id="_x32_6_1_" class="st1" cx="314.27" cy="560.57" r="5.83"/>
	<text transform="matrix(1 0 0 1 309.4057 563.238)" class="st2 st3">26</text>
</g>
<g>
	<path id="_x32_7" class="st6" d="M342.86,666.18l-1.48-1.05l3-16.75l6.22-17.34l19.02-16.12l-3.76-4.49l-8.22-7.74l0.05-0.35
		l-69.25-5.7l-37.7,16.52l-26.89,13.08l-21.91,33.31l12.7,16.16l20.02-8.01l32.15,4.68l19.55-8.36l14.82-3.35l23.09,24.87
		l25.57,18.67l23.28-5.26c1.37-7.76,2.68-15.91,2.99-19.08c-3.18-1.09-12.03-2.51-14.13-2.51
		C361.14,677.37,358.52,677.37,342.86,666.18z"/>
	<circle id="_x32_7_1_" class="st1" cx="286.83" cy="634.24" r="5.83"/>
	<text transform="matrix(1 0 0 1 280.9365 638.3487)" class="st2 st3">27</text>
</g>
<g>
	<polygon id="_x32_8" class="st7" points="320.05,69.11 338.06,76.23 345.33,79.24 351.85,59.03 367.94,52.79 380.75,49.13 
		380.75,37.07 373.2,33.87 364.11,33.87 357.31,38.62 345.27,27.4 344.91,27.17 336.72,30.98 327.37,43.84 312.25,55.65 	"/>
	<circle id="_x32_8_1_" class="st1" cx="341.04" cy="52.89" r="5.83"/>
	<text transform="matrix(1 0 0 1 336.4922 52.2379)" class="st2 st3">28</text>
</g>
<g>
	<path id="_x32_9" class="st7" d="M357.49,36.16l6.03-4.2l10.26,0.08l8.89,3.76v14.78l-14.12,4.03l-15.15,5.88l-6.29,19.48
		l9.25,3.83l14-2.45l5.76-6.99l15.18,3.25c0.76,0.52,1.45,0.99,2.15,1.46l5.35-11.98l8.47-8.99V42.01l12.28-8.72l5.83-19.42
		l9.09-2.99l15.06-6.78h19.87L455.97,0H432h-16.37c0,0-9.35,10.52-13.44,8.18s-40.33,11.11-40.33,11.11l-15.01,6.98L357.49,36.16z"
		/>
	<circle id="_x32_9_1_" class="st1" cx="397.49" cy="26.9" r="5.83"/>
	<text transform="matrix(1 0 0 1 391.1587 24.9044)" class="st2 st3">29</text>
</g>
<g>
	<path id="_x33_0" class="st7" d="M318.12,114.95l24.3-4.54l21.68,13l20.88-3.56L397,103.69l1.64-3.15
		c1.67-5.33,3.44-11.5,3.54-12.84c-0.92-0.87-7.32-5.35-11.81-8.4l-13.52-2.82l-5.48,6.64l-15.24,2.67l-18.79-7.78l-18.62-7.36
		l-8.01-13.8l-2.06,1.61l-3.8,1.13l-0.48,23.94l13.74,30.23C318.12,114.11,318.12,114.52,318.12,114.95z"/>
	<circle id="_x33_0_1_" class="st1" cx="370.34" cy="100.32" r="5.83"/>
	<text transform="matrix(1 0 0 1 366.492 106.375)" class="st2 st3">30</text>
</g>
<g>
	<path id="_x33_1" class="st7" d="M320.7,152.98l-2.37,14.76c6.13,5.81,15.18,14.33,15.96,14.87c0.22,0.1,0.76,0.4,8.38,14.28
		l18.28-7.91l10.57,4.76l12.85-12.29l-12.16-25.8l20.63-15.67l-7.89-18.18l-21.21,3.62l-21.67-12.99l-23.91,4.47
		c0.08,8.8,0.21,25.89-0.02,28.7L320.7,152.98z"/>
	<circle id="_x33_1_1_" class="st1" cx="346.85" cy="151.63" r="5.83"/>
	<text transform="matrix(1 0 0 1 342.6667 154.6612)" class="st2 st3">31</text>
</g>
<g>
	<path id="_x33_2" class="st7" d="M420.31,150.81l4.68-18.12l12.86-14.61l2.39-0.72l-3.66-8.96c-7.54-3.18-18.96-7.85-20.47-8.07
		c-1.47-0.21-10.47,1.38-16.06,2.48l-13.42,18.05l8.57,19.74l-20.59,15.65l12.09,25.64l-13.28,12.71l0.53,0.24l14.6,0.36
		c1.06-1.89,2.3-3.77,3.14-4.04c1.75-0.58,7.6-14.03,7.6-14.03l-2.92-9.94l12.86-10.52L420.31,150.81z"/>
	<circle id="_x33_2_1_" class="st1" cx="411.27" cy="125.41" r="5.83"/>
	<text transform="matrix(1 0 0 1 406.816 126.6821)" class="st2 st3">32</text>
</g>
<g>
	<path id="_x33_3" class="st7" d="M450.12,19.87c-2.34,1.17-2.92-10.46-2.92-10.46l-8.7,2.15l-11.57,3.8l-5.73,19.1L409.19,43v15.86
		l-8.88,9.42l-5.26,11.89c5.6,3.87,8.63,6.15,8.92,6.74c0.19,0.38,0.58,1.2-3.4,13.83c3.73-0.72,13.8-2.61,15.81-2.32
		c2.1,0.3,16.83,6.47,20.59,8.05l6.05-8.61l14.52-14.99l16.61,12.07h18.72l4.32-20.93l24.32-7.36l8.81-33.99l1.98-18.11l-11.46,0.64
		l-25.72,12.86l12.86-13.44c0,0-2.34-1.17-7.6-1.17c-5.26,0-33.32,2.92-33.32,2.92S452.46,18.71,450.12,19.87z"/>
	<circle id="_x33_3_1_" class="st1" cx="443.48" cy="59.49" r="5.83"/>
	<text transform="matrix(1 0 0 1 438.3945 62.4601)" class="st2 st3">33</text>
</g>
<g>
	<path id="_x33_4" class="st7" d="M520.74,97.02l-19.26,11.94l-8.33-12.1h-19.62l-15.77-11.46L444.5,99.09l-6.1,8.7l3.68,9.02
		l7.46-2.24l24.55,12.28l12.28,18.71L483.44,159l9.94,3.51l-3.51,11.11c0,0-7.01,10.52-9.35,11.69c-2.34,1.17-14.03-0.58-14.03-0.58
		s-13.44,2.92-14.61,5.26c-1.17,2.34-5.26,17.54-5.26,17.54l16.37-5.26l3.51,5.85l13.44-14.61l18.12-1.75l5.85-13.44l-2.92-16.37
		l1.17-13.44l-2.92-10.52l7.6-11.69l15.78-8.18l-0.58-8.18l8.79-7.26L520.74,97.02z"/>
	<circle id="_x33_4_1_" class="st1" cx="488.32" cy="122.4" r="5.83"/>
	<text transform="matrix(1 0 0 1 482.2695 123.0186)" class="st2 st3">34</text>
</g>
<g>
	<polygon id="_x33_5" class="st7" points="587.66,72.21 580.8,35.24 580.93,34.97 591.08,12.61 583.25,14.61 552.42,13.44 
		534.25,14.45 532.21,33.02 523.1,68.19 498.85,75.53 494.68,95.71 502.03,106.38 520.69,94.8 532.39,101.33 535.47,98.79 
		554.76,83.01 572.29,89.44 574.21,91.17 	"/>
	<circle id="_x33_5_1_" class="st1" cx="555.81" cy="57.95" r="5.83"/>
	<text transform="matrix(1 0 0 1 546.7145 64.2379)" class="st2 st3">35</text>
</g>
<g>
	<path id="_x33_6_1_" class="st7" d="M593.46,12L582.8,35.49l3.63,19.55l51.97-7.42l50.8-12.6l1.97-20.97
		c-0.02-0.01-0.04-0.02-0.06-0.03c-3.07-1.75-27.62-4.09-27.62-4.09l-1.75,12.28l-11.84-4.09c0,0-17.39-7.01-19.14-8.18
		s-29.23,0-29.23,0L593.46,12z"/>
	<circle id="_x33_6_2_" class="st1" cx="616.13" cy="27.17" r="5.83"/>
	<text transform="matrix(1 0 0 1 607.8257 33.5709)" class="st2 st3">36</text>
</g>
<g>
	<path id="_x33_7_1_" class="st7" d="M689.33,36.97L638.76,49.5l-51.98,7.42l2.92,15.73l-14.05,19.81l7.61,6.9c0,0-3.65,8.77,0,8.77
		c3.65,0,15.93-8.18,15.93-8.18l-8.77-11.69l12.86-9.35c0,0,30.98-11.11,33.9-9.94c2.92,1.17,41.5-0.09,41.5-0.09l17.27,3.9
		L689.33,36.97z"/>
	<circle id="_x33_7" class="st1" cx="670.56" cy="55.32" r="5.83"/>
	<text transform="matrix(1 0 0 1 661.8257 59.5709)" class="st2 st3">37</text>
</g>
<g>
	<path id="_x33_8" class="st7" d="M758.76,31.57l-20.46-5.26c0,0-7.01,1.17-8.77,0c-1.75-1.17-14.03-12.28-14.03-12.28
		s-16.32,1.34-22.47,0.5l-1.99,21.22l6.94,37.49l7,1.58l33.9,6.43l21.04-4.09c0,0,0-13.44,0-15.78s11.11-21.04,11.11-21.04
		L758.76,31.57z"/>
	<circle id="_x33_8_1_" class="st1" cx="724.98" cy="49.24" r="5.83"/>
	<text transform="matrix(1 0 0 1 716.992 55.0397)" class="st2 st3">38</text>
</g>
<g>
	<path id="_x33_9" class="st8" d="M628.94,357.13l14.8-17.15V320.2h32.61l17.75-12.45l5.29-12.27c-0.79-2.19-1.53-4.25-1.72-4.81
		c-0.44-1.32-9.21-2.63-9.21-2.63s-17.98,3.07-19.29,3.51c-1.32,0.44-11.4,2.63-11.84,1.32c-0.44-1.32-5.47-3.51-5.47-3.51
		l-8.34,1.32l-7.23-20.17h-8.33l-5.26,8.77l-4.82-1.75l-10.08,2.63l-10.08-5.7h-10.96l-5.26,3.95l-6.58,11.4l2.63,9.65l16.66,17.97
		l-7.45,4.38l-3.95,11.4l8.77,21.92l8.33,17.97l4.38-6.14h9.21l5.26-7.89l8.77-3.95L628.94,357.13z"/>
	<circle id="_x33_9_1_" class="st1" cx="618.16" cy="309.9" r="5.83"/>
	<text transform="matrix(1 0 0 1 616.1338 314.9045)" class="st2 st3">39</text>
</g>
<g>
	<path id="_x34_0" class="st8" d="M703.84,262.17c-2.61,0.88-3.53,8.14-3.53,8.14l3.53,0.19c0,0,9.63-0.44,10.94,0
		c1.32,0.44,12.71,3.51,12.71,3.51l8.77-3.51c0,0,17.54,3.51,19.73,4.82c2.19,1.32,3.95,10.96,3.95,10.96v15.34l-10.96,3.51h-8.77
		c0,0-10.52,4.38-11.84,5.26c-1.32,0.88-10.08,0.88-10.08,0.88l-9.21-10.08l-7.45,0.44c0,0-0.57-1.57-1.28-3.52l-4.7,10.9
		l-17.28,12.12l22.66,14.81l37.15,10.71l32.1-20.49l13.01-28.36l24.34-14.09l9-14.81l-8.9-4.97l-13.15-7.45l-11.4-4.82l-14.91,4.82
		l-17.1-7.45c0,0-19.29,1.32-21.04,1.32c-1.75,0-12.71-3.07-15.34-3.95c-2.63-0.88-18.41-1.32-20.17-0.44
		c-1.75,0.88-7.45,6.14-7.45,6.14s11.4,3.07,13.59,3.07C702.94,255.16,706.45,261.29,703.84,262.17z"/>
	<circle id="_x34_0_1_" class="st1" cx="734.27" cy="322.12" r="5.83"/>
	<text transform="matrix(1 0 0 1 724.9825 326.2379)" class="st2 st3">40</text>
</g>
<g>
	<path id="_x34_1" class="st8" d="M842.76,345.24l-3.03-9.85v-11.84l-3.51-0.88c0,0-4.38,10.08-5.7,10.08
		c-1.32,0-2.19-7.89-2.19-7.89l2.19-13.59v-6.14l-3.95-16.66v-14.03l-8.26-4.61l-0.1,0.12l-9.2,15.16l-24.24,14.03l-12.98,28.31
		l-32.28,20.61l9.65,25.42L842.76,345.24z"/>
	<circle id="_x34_1_1_" class="st1" cx="788.33" cy="339" r="5.83"/>
	<text transform="matrix(1 0 0 1 784.4924 340.8188)" class="st2 st3">41</text>
</g>
<g>
	<path id="_x34_2" class="st8" d="M683,405.41l5.64-3.22l12.66,0.53l0.82,1.02c1.14,1.42,2.45,3.14,3.37,4.59l35.21-4.74l0.24,0.1
		c2.21,0.9,4.28,1.74,6.29,2.56l6.69-14.81l-16.31-42.96l-37.51-10.85l-23.73-15.5h-30.71v18.57l-15.59,18.06l6.66,9.52v10.96
		l6.46,16.55l11.71,6.8l16.88-1.73L683,405.41z"/>
	<circle id="_x34_2_1_" class="st1" cx="688.16" cy="368.39" r="5.83"/>
	<text transform="matrix(1 0 0 1 681.6035 371.0899)" class="st2 st3">42</text>
</g>
<g>
	<path id="_x34_3" class="st8" d="M859.45,377.91c-0.88-1.32-5.7-9.21-7.01-10.52c-1.32-1.32,0-10.08,0-10.08l-9.21,3.51v-13.63
		l-93.36,28.18l6.12,16.13L749,406.97c30.35,12.44,37.7,16.36,39.51,17.76l12.02,1.52l7.31-5.7v-8.98l14.96-2.41l0.24,0.09
		c2.05,0.77,4.54,1.6,5.23,1.7c1.09-0.51,7.36-4.05,11.21-6.27l0.24-0.1l25.87-6.59v-8.25
		C865.59,389.75,860.33,379.23,859.45,377.91z"/>
	<circle id="_x34_3_1_" class="st1" cx="794.16" cy="392.57" r="5.83"/>
	<text transform="matrix(1 0 0 1 786.9629 395.571)" class="st2 st3">43</text>
</g>
<g>
	<path id="_x34_4" class="st8" d="M698.42,408.35l-8.37-0.35l-6.63,3.79l-12.47-5.08l-17.31,1.78l-14.8-8.65l-12.14-10.19
		l-15.33,7.67l-6.56-8.49l-2.01,2.74v14.16h9.48l10.05,21.61l-6.03,16.07c17,7.11,35.4,14.47,38.1,14.93h2.48l3.31-2.32l6.74-8.32
		l1.01-5.44l-13.62-3.23l7.62-13.84l18.83,2.9l12.28-0.36l1.04-6.24l0.41-0.56c2.5-3.38,5.33-7.58,6.25-9.38
		C700.24,410.78,699.33,409.53,698.42,408.35z"/>
	<circle id="_x34_4_1_" class="st1" cx="636.98" cy="426.25" r="5.83"/>
	<text transform="matrix(1 0 0 1 632.825 429.2501)" class="st2 st3">44</text>
</g>
<g>
	<path id="_x34_5" class="st8" d="M749.74,492.65l16.99-11.24l-3.84-42.27l0.59-0.29c10.29-5.08,21.34-11.07,23.49-13.05
		c-3.92-2.6-29.99-13.56-46.51-20.26l-33.98,4.58c0.02,0.06,0.06,0.13,0.08,0.19c0.42,1.26,0.9,2.69-7.02,13.46l-1.59,9.54
		l-17.53,0.52l-15.37-2.36l-2.03,3.69l11.58,2.74l-2.27,12.26l-5.32,6.57l1.74,4.47l9.21,10.08l9.21,8.77l4.38,9.65
		c0,0,13.59,6.58,14.91,6.58c1.32,0,8.77-2.19,8.77-3.51c0-1.32,0.88-4.82,0.88-4.82l-7.45-3.95l-4.8-4.38l-3.09-7.01l8.77,3.07
		l10.52,3.07l9.65,4.82l19.29,8.77L749.74,492.65z"/>
	<circle id="_x34_5_1_" class="st1" cx="724.65" cy="447.95" r="5.83"/>
	<text transform="matrix(1 0 0 1 716.992 450.9171)" class="st2 st3">45</text>
</g>
<g>
	<path id="_x34_6" class="st8" d="M840.32,406.42c-4.99,2.86-11,6.27-11.63,6.42c-0.28,0.07-0.91,0.23-6.08-1.7l-12.84,2.07v8.28
		l-8.67,6.76l-12.43-1.57c-1.36,1.54-6.3,4.97-23.74,13.6l3.83,42.1l-16.86,11.15l14.19,5.82l14.03-3.07l10.96-3.51
		c0,0,9.65-6.14,10.52-7.89c0.88-1.75,7.45-5.7,7.45-5.7l11.84-3.51l6.58,6.14l7.89-3.95l6.58-10.52l3.07-14.91l3.51-12.28
		l6.14-5.26l12.28-4.38l6.58-2.19v-5.7v-15.34l-7.43-7.43L840.32,406.42z"/>
	<circle id="_x34_6_1_" class="st1" cx="807.3" cy="450.92" r="5.83"/>
	<text transform="matrix(1 0 0 1 798.4917 455.9171)" class="st2 st3">46</text>
</g>
<g>
	<path id="_x34_7" class="st8" d="M635.86,485.32c-2.19,0-16.66,3.95-16.66,3.95l-3.07,18.41l19.73,4.82l36.83,4.38l7.89-15.78
		l-10.96-14.03l-7.45-11.4c0,0-11.84,0-13.81,0C646.38,475.68,635.86,485.32,635.86,485.32z"/>
	<circle id="_x34_7_1_" class="st1" cx="648.36" cy="496.28" r="5.83"/>
	<text transform="matrix(1 0 0 1 639.6417 500.4171)" class="st2 st3">47</text>
</g>
</svg>
