<?xml version="1.0" encoding="utf-8"?>
<!-- Generator: Adobe Illustrator 23.0.2, SVG Export Plug-In . SVG Version: 6.00 Build 0)  -->
<svg version="1.1" id="graph_edges" xmlns="http://www.w3.org/2000/svg" xmlns:xlink="http://www.w3.org/1999/xlink" x="0px"
	 y="0px" viewBox="0 0 873.5 704.2" style="enable-background:new 0 0 873.5 704.2;" xml:space="preserve">
<style type="text/css">
	.st0{fill:none;stroke:#F5F1F2;stroke-width:2;stroke-miterlimit:10;}
</style>
<line class="st0" x1="233.7" y1="584.1" x2="314.3" y2="560.6"/>
<line class="st0" x1="286.8" y1="635.2" x2="314.3" y2="560.6"/>
<line class="st0" x1="233.7" y1="584.1" x2="286.8" y2="635.2"/>
<line class="st0" x1="191.2" y1="542.2" x2="233.7" y2="584.1"/>
<line class="st0" x1="252.2" y1="511.9" x2="233.7" y2="584.1"/>
<line class="st0" x1="314.3" y1="560.6" x2="252.2" y2="511.9"/>
<line class="st0" x1="191.2" y1="542.2" x2="252.2" y2="511.9"/>
<line class="st0" x1="250.7" y1="424.5" x2="252.2" y2="511.9"/>
<line class="st0" x1="194" y1="417.7" x2="250.7" y2="424.5"/>
<line class="st0" x1="268.3" y1="369.7" x2="250.7" y2="424.5"/>
<line class="st0" x1="194" y1="417.7" x2="268.3" y2="369.7"/>
<line class="st0" x1="284.2" y1="310.7" x2="268.3" y2="369.7"/>
<line class="st0" x1="348" y1="356.2" x2="268.3" y2="369.7"/>
<line class="st0" x1="314.3" y1="560.6" x2="438.4" y2="405.5"/>
<line class="st0" x1="348" y1="356.2" x2="438.4" y2="405.5"/>
<line class="st0" x1="421.2" y1="358.7" x2="438.4" y2="405.5"/>
<line class="st0" x1="323.7" y1="287.4" x2="284.2" y2="310.7"/>
<line class="st0" x1="348" y1="356.2" x2="323.7" y2="287.4"/>
<line class="st0" x1="284.2" y1="310.7" x2="348" y2="356.2"/>
<line class="st0" x1="99.8" y1="296.1" x2="194" y2="417.7"/>
<line class="st0" x1="348" y1="356.2" x2="421.2" y2="358.7"/>
<line class="st0" x1="471.2" y1="324.2" x2="421.2" y2="358.7"/>
<line class="st0" x1="438.4" y1="405.5" x2="471.2" y2="324.2"/>
<line class="st0" x1="414.3" y1="292" x2="421.2" y2="358.7"/>
<line class="st0" x1="366.5" y1="278.5" x2="414.3" y2="292"/>
<line class="st0" x1="471.2" y1="324.2" x2="414.3" y2="292"/>
<line class="st0" x1="421.1" y1="357.8" x2="366.5" y2="278.5"/>
<line class="st0" x1="348" y1="356.2" x2="366.5" y2="278.5"/>
<line class="st0" x1="323.7" y1="287.4" x2="366.5" y2="278.5"/>
<line class="st0" x1="414.3" y1="292" x2="488" y2="123"/>
<line class="st0" x1="374.2" y1="221.4" x2="366.5" y2="278.5"/>
<line class="st0" x1="414.3" y1="292" x2="374.2" y2="221.4"/>
<line class="st0" x1="158.8" y1="268.2" x2="99.8" y2="296.1"/>
<line class="st0" x1="123.2" y1="174.5" x2="158.8" y2="268.2"/>
<line class="st0" x1="56.9" y1="196.9" x2="158.8" y2="268.2"/>
<line class="st0" x1="123.2" y1="174.5" x2="56.9" y2="196.9"/>
<line class="st0" x1="60.2" y1="106.4" x2="123.2" y2="174.5"/>
<line class="st0" x1="56.9" y1="196.9" x2="60.2" y2="106.4"/>
<line class="st0" x1="77.1" y1="55" x2="60.2" y2="106.4"/>
<line class="st0" x1="171.8" y1="60.5" x2="60.2" y2="106.4"/>
<line class="st0" x1="77.1" y1="55" x2="171.8" y2="60.5"/>
<line class="st0" x1="195.8" y1="147.8" x2="60.2" y2="106.4"/>
<line class="st0" x1="123.2" y1="174.5" x2="195.8" y2="147.8"/>
<line class="st0" x1="207.1" y1="225.9" x2="123.2" y2="174.5"/>
<line class="st0" x1="195.8" y1="147.8" x2="207.1" y2="225.9"/>
<line class="st0" x1="316.3" y1="186.8" x2="195.8" y2="147.8"/>
<line class="st0" x1="263.8" y1="214.9" x2="195.8" y2="147.8"/>
<line class="st0" x1="346.8" y1="151.6" x2="195.8" y2="147.8"/>
<line class="st0" x1="370.3" y1="100.3" x2="195.8" y2="147.8"/>
<line class="st0" x1="158.8" y1="268.2" x2="207.1" y2="225.9"/>
<line class="st0" x1="263.8" y1="214.9" x2="207.1" y2="225.9"/>
<line class="st0" x1="316.3" y1="186.8" x2="263.8" y2="214.9"/>
<line class="st0" x1="346.8" y1="151.6" x2="316.3" y2="186.8"/>
<line class="st0" x1="370.3" y1="100.3" x2="346.8" y2="151.6"/>
<line class="st0" x1="374.2" y1="221.4" x2="346.8" y2="151.6"/>
<line class="st0" x1="316.3" y1="186.8" x2="376.3" y2="221.4"/>
<line class="st0" x1="366.5" y1="278.5" x2="316.3" y2="186.8"/>
<line class="st0" x1="323.7" y1="287.4" x2="316.3" y2="186.8"/>
<line class="st0" x1="263.8" y1="214.9" x2="323.7" y2="287.4"/>
<line class="st0" x1="284.2" y1="310.7" x2="263.8" y2="214.9"/>
<line class="st0" x1="414.3" y1="123.4" x2="346.8" y2="151.6"/>
<line class="st0" x1="342.7" y1="47.6" x2="370.3" y2="100.3"/>
<line class="st0" x1="397.5" y1="24.9" x2="370.3" y2="100.3"/>
<line class="st0" x1="342.7" y1="47.6" x2="397.5" y2="24.9"/>
<line class="st0" x1="414.3" y1="123.4" x2="370.3" y2="100.3"/>
<line class="st0" x1="648.4" y1="496.3" x2="314.3" y2="560.6"/>
<line class="st0" x1="443.5" y1="59.5" x2="414.3" y2="123.4"/>
<line class="st0" x1="397.5" y1="24.9" x2="443.5" y2="59.5"/>
<line class="st0" x1="488" y1="123" x2="443.5" y2="59.5"/>
<line class="st0" x1="553.8" y1="58" x2="443.5" y2="59.5"/>
<line class="st0" x1="616.1" y1="27.2" x2="553.8" y2="58"/>
<line class="st0" x1="670.5" y1="55" x2="553.8" y2="58"/>
<line class="st0" x1="725" y1="49.2" x2="670.5" y2="55"/>
<line class="st0" x1="616.1" y1="27.2" x2="725" y2="49.2"/>
<line class="st0" x1="670.5" y1="55" x2="734.3" y2="322.1"/>
<line class="st0" x1="618.2" y1="309.9" x2="734.3" y2="322.1"/>
<line class="st0" x1="471.2" y1="324.2" x2="618.2" y2="309.9"/>
<line class="st0" x1="687.5" y1="368.2" x2="618.2" y2="309.9"/>
<line class="st0" x1="734.3" y1="322.1" x2="687.5" y2="368.2"/>
<line class="st0" x1="789.2" y1="338.8" x2="734.3" y2="322.1"/>
<line class="st0" x1="687.5" y1="368.2" x2="789.2" y2="338.8"/>
<line class="st0" x1="794.2" y1="392.6" x2="687.5" y2="368.2"/>
<line class="st0" x1="789.2" y1="338.8" x2="794.2" y2="392.6"/>
<line class="st0" x1="807.3" y1="450.9" x2="794.2" y2="392.6"/>
<line class="st0" x1="723.5" y1="447.9" x2="807.3" y2="450.9"/>
<line class="st0" x1="794.2" y1="392.6" x2="723.5" y2="447.9"/>
<line class="st0" x1="687.5" y1="368.2" x2="723.5" y2="447.9"/>
<line class="st0" x1="637" y1="426.3" x2="687.5" y2="368.2"/>
<line class="st0" x1="648.4" y1="496.3" x2="723.5" y2="447.9"/>
<line class="st0" x1="637" y1="426.3" x2="648.4" y2="496.3"/>
<line class="st0" x1="488" y1="123" x2="555.8" y2="58"/>
<line class="st0" x1="637" y1="426.3" x2="724.7" y2="447.9"/>
<line class="st0" x1="250.7" y1="424.5" x2="190.5" y2="542.6"/>
<line class="st0" x1="488.3" y1="122.4" x2="414.3" y2="123.4"/>
<line class="st0" x1="443.5" y1="59.5" x2="370.3" y2="100.3"/>
<line class="st0" x1="616.1" y1="27.2" x2="670.5" y2="55"/>
<line class="st0" x1="374.2" y1="219.9" x2="411.2" y2="125.9"/>
</svg>
