<?xml version="1.0" encoding="utf-8"?>
<!-- Generator: Adobe Illustrator 23.0.1, SVG Export Plug-In . SVG Version: 6.00 Build 0)  -->
<!DOCTYPE svg PUBLIC "-//W3C//DTD SVG 1.1//EN" "http://www.w3.org/Graphics/SVG/1.1/DTD/svg11.dtd" [
	<!ENTITY st0 "fill:none;stroke:#F5F2F2;stroke-width:2;stroke-miterlimit:10;">
]>
<svg version="1.1" id="graph_edges" xmlns="http://www.w3.org/2000/svg" xmlns:xlink="http://www.w3.org/1999/xlink" x="0px"
	 y="0px" viewBox="0 0 873.48 704.21" style="enable-background:new 0 0 873.48 704.21;" xml:space="preserve">
<line style="&st0;" x1="233.71" y1="584.13" x2="314.27" y2="560.57"/>
<line style="&st0;" x1="286.83" y1="635.24" x2="314.27" y2="560.57"/>
<line style="&st0;" x1="233.71" y1="584.13" x2="286.83" y2="635.24"/>
<line style="&st0;" x1="191.22" y1="542.24" x2="233.71" y2="584.13"/>
<line style="&st0;" x1="252.16" y1="511.9" x2="233.71" y2="584.13"/>
<line style="&st0;" x1="314.27" y1="560.57" x2="252.16" y2="511.9"/>
<line style="&st0;" x1="191.22" y1="542.24" x2="252.16" y2="511.9"/>
<line style="&st0;" x1="250.71" y1="424.46" x2="252.16" y2="511.9"/>
<line style="&st0;" x1="194.05" y1="417.66" x2="250.71" y2="424.46"/>
<line style="&st0;" x1="268.33" y1="369.74" x2="250.71" y2="424.46"/>
<line style="&st0;" x1="194.05" y1="417.66" x2="268.33" y2="369.74"/>
<line style="&st0;" x1="284.16" y1="310.68" x2="268.33" y2="369.74"/>
<line style="&st0;" x1="348.05" y1="356.24" x2="268.33" y2="369.74"/>
<line style="&st0;" x1="314.27" y1="560.57" x2="438.39" y2="405.55"/>
<line style="&st0;" x1="348.05" y1="356.24" x2="438.39" y2="405.55"/>
<line style="&st0;" x1="421.16" y1="358.74" x2="438.39" y2="405.55"/>
<line style="&st0;" x1="323.66" y1="287.39" x2="284.16" y2="310.68"/>
<line style="&st0;" x1="348.05" y1="356.24" x2="323.66" y2="287.39"/>
<line style="&st0;" x1="284.16" y1="310.68" x2="348.05" y2="356.24"/>
<line style="&st0;" x1="99.83" y1="296.06" x2="194.05" y2="417.66"/>
<line style="&st0;" x1="348.05" y1="356.24" x2="421.16" y2="358.74"/>
<line style="&st0;" x1="471.16" y1="324.24" x2="421.16" y2="358.74"/>
<line style="&st0;" x1="438.39" y1="405.55" x2="471.16" y2="324.24"/>
<line style="&st0;" x1="414.27" y1="292.02" x2="421.16" y2="358.74"/>
<line style="&st0;" x1="366.49" y1="278.46" x2="414.27" y2="292.02"/>
<line style="&st0;" x1="471.16" y1="324.24" x2="414.27" y2="292.02"/>
<line style="&st0;" x1="421.06" y1="357.82" x2="366.49" y2="278.46"/>
<line style="&st0;" x1="348.05" y1="356.24" x2="366.49" y2="278.46"/>
<line style="&st0;" x1="323.66" y1="287.39" x2="366.49" y2="278.46"/>
<line style="&st0;" x1="414.27" y1="292.02" x2="488.05" y2="123.02"/>
<line style="&st0;" x1="374.18" y1="221.42" x2="366.49" y2="278.46"/>
<line style="&st0;" x1="414.27" y1="292.02" x2="374.18" y2="221.42"/>
<line style="&st0;" x1="158.83" y1="268.24" x2="99.83" y2="296.06"/>
<line style="&st0;" x1="123.16" y1="174.51" x2="158.83" y2="268.24"/>
<line style="&st0;" x1="56.87" y1="196.89" x2="158.83" y2="268.24"/>
<line style="&st0;" x1="123.16" y1="174.51" x2="56.87" y2="196.89"/>
<line style="&st0;" x1="60.16" y1="106.38" x2="123.16" y2="174.51"/>
<line style="&st0;" x1="56.87" y1="196.89" x2="60.16" y2="106.38"/>
<line style="&st0;" x1="77.09" y1="55.04" x2="60.16" y2="106.38"/>
<line style="&st0;" x1="171.83" y1="60.5" x2="60.16" y2="106.38"/>
<line style="&st0;" x1="77.09" y1="55.04" x2="171.83" y2="60.5"/>
<line style="&st0;" x1="195.83" y1="147.75" x2="60.16" y2="106.38"/>
<line style="&st0;" x1="123.16" y1="174.51" x2="195.83" y2="147.75"/>
<line style="&st0;" x1="207.14" y1="225.9" x2="123.16" y2="174.51"/>
<line style="&st0;" x1="195.83" y1="147.75" x2="207.14" y2="225.9"/>
<line style="&st0;" x1="316.34" y1="186.83" x2="195.83" y2="147.75"/>
<line style="&st0;" x1="263.83" y1="214.9" x2="195.83" y2="147.75"/>
<line style="&st0;" x1="346.85" y1="151.63" x2="195.83" y2="147.75"/>
<line style="&st0;" x1="370.34" y1="100.32" x2="195.83" y2="147.75"/>
<line style="&st0;" x1="158.83" y1="268.24" x2="207.14" y2="225.9"/>
<line style="&st0;" x1="263.83" y1="214.9" x2="207.14" y2="225.9"/>
<line style="&st0;" x1="316.34" y1="186.83" x2="263.83" y2="214.9"/>
<line style="&st0;" x1="346.85" y1="151.63" x2="316.34" y2="186.83"/>
<line style="&st0;" x1="370.34" y1="100.32" x2="346.85" y2="151.63"/>
<line style="&st0;" x1="374.18" y1="221.42" x2="346.85" y2="151.63"/>
<line style="&st0;" x1="316.34" y1="186.83" x2="376.33" y2="221.42"/>
<line style="&st0;" x1="366.49" y1="278.46" x2="316.34" y2="186.83"/>
<line style="&st0;" x1="323.66" y1="287.39" x2="316.34" y2="186.83"/>
<line style="&st0;" x1="263.83" y1="214.9" x2="323.66" y2="287.39"/>
<line style="&st0;" x1="284.16" y1="310.68" x2="263.83" y2="214.9"/>
<line style="&st0;" x1="414.27" y1="123.41" x2="346.85" y2="151.63"/>
<line style="&st0;" x1="342.67" y1="47.64" x2="370.34" y2="100.32"/>
<line style="&st0;" x1="397.49" y1="24.9" x2="370.34" y2="100.32"/>
<line style="&st0;" x1="342.67" y1="47.64" x2="397.49" y2="24.9"/>
<line style="&st0;" x1="414.27" y1="123.41" x2="370.34" y2="100.32"/>
<line style="&st0;" x1="648.36" y1="496.28" x2="314.27" y2="560.57"/>
<line style="&st0;" x1="443.48" y1="59.49" x2="414.27" y2="123.41"/>
<line style="&st0;" x1="397.49" y1="24.9" x2="443.48" y2="59.49"/>
<line style="&st0;" x1="488.05" y1="123.02" x2="443.48" y2="59.49"/>
<line style="&st0;" x1="553.83" y1="57.95" x2="443.48" y2="59.49"/>
<line style="&st0;" x1="616.13" y1="27.17" x2="553.83" y2="57.95"/>
<line style="&st0;" x1="670.49" y1="55.04" x2="553.83" y2="57.95"/>
<line style="&st0;" x1="724.98" y1="49.24" x2="670.49" y2="55.04"/>
<line style="&st0;" x1="616.13" y1="27.17" x2="724.98" y2="49.24"/>
<line style="&st0;" x1="670.49" y1="55.04" x2="734.27" y2="322.12"/>
<line style="&st0;" x1="618.16" y1="309.9" x2="734.27" y2="322.12"/>
<line style="&st0;" x1="471.16" y1="324.24" x2="618.16" y2="309.9"/>
<line style="&st0;" x1="687.49" y1="368.24" x2="618.16" y2="309.9"/>
<line style="&st0;" x1="734.27" y1="322.12" x2="687.49" y2="368.24"/>
<line style="&st0;" x1="789.16" y1="338.76" x2="734.27" y2="322.12"/>
<line style="&st0;" x1="687.49" y1="368.24" x2="789.16" y2="338.76"/>
<line style="&st0;" x1="794.16" y1="392.57" x2="687.49" y2="368.24"/>
<line style="&st0;" x1="789.16" y1="338.76" x2="794.16" y2="392.57"/>
<line style="&st0;" x1="807.3" y1="450.92" x2="794.16" y2="392.57"/>
<line style="&st0;" x1="723.49" y1="447.9" x2="807.3" y2="450.92"/>
<line style="&st0;" x1="794.16" y1="392.57" x2="723.49" y2="447.9"/>
<line style="&st0;" x1="687.49" y1="368.24" x2="723.49" y2="447.9"/>
<line style="&st0;" x1="636.98" y1="426.25" x2="687.49" y2="368.24"/>
<line style="&st0;" x1="648.36" y1="496.28" x2="723.49" y2="447.9"/>
<line style="&st0;" x1="636.98" y1="426.25" x2="648.36" y2="496.28"/>
<line style="&st0;" x1="488.05" y1="123.02" x2="555.81" y2="57.95"/>
<line style="&st0;" x1="636.98" y1="426.25" x2="724.65" y2="447.95"/>
<line style="&st0;" x1="250.71" y1="424.46" x2="190.54" y2="542.58"/>
<line style="&st0;" x1="488.32" y1="122.4" x2="414.27" y2="123.41"/>
<line style="&st0;" x1="443.48" y1="59.49" x2="370.34" y2="100.32"/>
<line style="&st0;" x1="616.13" y1="27.17" x2="670.49" y2="55.04"/>
</svg>
